<?xml version="1.0" encoding="UTF-8"?>
<svg version="1.1" viewBox="0 0 2048 2048" width="2048" height="2048" xmlns="http://www.w3.org/2000/svg">
<path transform="translate(0)" d="m0 0h2048v2048h-2048z" fill="#073C53"/>
<path transform="translate(611,870)" d="m0 0 8 4 9 12 9 16 8 16 5 9 2 12v7l-2 3-3 18v3h-2l1 7 8 20 3-9 2-12v-25l-3-13 1-4 8 10 6 9 4 4v2h21l-1 5-2 8 10-6 5-4 12-4 7-1h24l20 1-2 6-5 13-38 1-8 2 1 5 24 5 10 4 10 9 5-10 4-9 6-16 4-13 3-6 23-1 3 1-3 10-1 2h21l1 3-6 17h-22l-15 42-1 3v10l3 4 7 2 1 2v7l1 4 9-16 1-4h2l2-5 3-3 2-10 8-5h2v2h-2v3l8-2 20-1 10-2h9 3l7-2 4-4 2-11 4-12 3-5 1 3-1 4 3 1 10-27h31l10 41 14-28 4-13 1-1h19l-1 5-3 11 6-15 1-1h67l-2 9-3 10-1 1h-21l-4 16-17 52-3 10-2 1h-26l-1-2 9-24 18-52-21-1-2 10-13 41-7 22-2 6-25-1-3-8-14-58-2 6-4 16-1 11 2 4-1 13-3 17-2 3 1 2v12l2 3-1 2 2 1-10 8-16 11 9-5 13-8 9-4 3-3 47-1 2 2-11 8-16 9-19 12-21 13-20 13 14-8 17-10 28-17 10-6 19-10 11-5 45-1-5 5-11 7-38 24-15 10-16 10-4 2v2h-107v-2l-4 2h-39l-2-2 27-18 25-16 15-10 9-5 11-7 6-2-1-4-2 1-2-2-6 1-2 2 1 4-44-1-3-3v-2l-1-2-10-2-15 1-14 2-2 1-1 2h-8l-1 2 36 2 4 1-2 4-17 11-22 14-38 24-6 4h-49l-2-2 16-10 14-9 15-9h2v-2l10-5 5-2v-2l10-5 20-13 1-4-4-3-2-3-3 5h-2l-1 2v-2h-2l-1 2-12 1-7-1-3 1 5 2h18l-4 4-17 11-41 27-19 12-6 5h-56l5-4 15-10 10-6 9-5 1-2h3v-2h2v-2l-10 5-16 10-11 7-14 9h-25l-1 7-6 5-16 8-16 5-16 1-15-5-13-6v6l-13-1-32-5-27-7-18-7-8-4-3-2h4l-4-13-10-22-8-13-3-5 6 2 23 12 10 7 4 5 5 1v2h2l4 4 5 3 6 1 2 1v2l5 1-1-1-10-9-9-9-8-7-29-29-9-11-5-5-6-5-4-7-4-9-1-3h21l20 1 8 11 9 10 7 8 27 27 11 9 7 6v2l4 2 10 8 11 8 8 6 11 6 21 11 21 7h6l-1-4-3-6-11-6-10-4-13-7-9-7-6-3v-2l-4-2-3-1v-2l-4-2-6-4-7-8-5 1-10-9-11-11-14-11-9-9-8-7-8-8-4-2-4-24-4-50v-11l6-4 15-6 13-4h2l2 53 4 55 1 4v8h2l3-11 4-13 2-5 2-10 2 2 3-3 1-3v-22l-2-20-6-24-5-13-5-12 15-7h8l7 3 5 5 11 15 6 18 12 20h2l3 6 10 9 1-6 1-24v-79l5 3 11 9 8 7 4 3v2h2v2l9 3-1 18-1 8h19l1 7-4 8-3 7-12 37-15 43-7 19h-29l2-7 10-30v-3l-7-2-18-1 4 19 2 7-1 7h2l3 12 1 1-1 9-1 2 5-1-1 9h34l-1 7-1 5 6-1 11-12h36l1 2h12l1-19 3-20 5-30 2-5h1l1 6v12l-3 35-3 20-1 2 12-2 2-16 3-15v-12l-8-25-4-10-7-20h-3l-17 51h-2l-1 6-5 15-4 4-23 1-1-5 5-13 5-12 3-10 2-5 3-14 1-9 3-7 1-7h2l3-12 2-6 2-15 2-6h9l7 5 2 5-1 2-3 1h21l-4-6-1-28-4-14-6-20-3-9z" fill="#4BBAD6"/>
<path transform="translate(1598,951)" d="m0 0m-504-14h31l-1 6-16 47-12 36-2 5 62-1 5-21 4-12 8-15 8-10 7-7 14-8 15-4 11-1h20l16 2 10 4 5 4 4 7 1 4v16l9-12 9-9 11-7 12-5 14-3 11-1h13l22 1 10 2 7 3v4l6-2h2l5-7 1 4-15 46-9 25-10 26-1 4h29l2-9 10-30 14-40 9-25-27-1 1-2 9-1 2-2h12l6 4 3 10 4-2 5-4 6-1 1-3v2h3l-1-3 3-3 4-1 4 2 1 2 10-1 4-3h17l4 3 17 3 2 1 5-2 12-1v-2l6-1 8 3h18l8-1 6 2v1l-54 1-5 1-7 22 34-1-3 11-10 27h-1v-6l1-1-1-12 2-3-1-3-19-2h-3v3l-6 3 3 6v14l-2 14-3 12-3 9-5 9-1 8 1 5 6 2 5 5v1l-32 2-10 2-7 5h-5v-6l-6-1v-2l-37-1 3-4 4-1-1-3h-13l-4-1-8 2-9 1-1 4 3 2-19 1-1 2-5 1-17 12-14 11-5-2 1-3 13-10 10-8h-25l-7 2-15 10-4-2h-3l-17 12-21 14-17 12-12 9h-111l5-4 24-15 19-12 5-2h-3l-23 13-28 17-4 3h-54l2-4 19-12 9-5 21-13 25-15 15-10-2-5 4 1 5-1-3-2 5-2v-2l-4-1-1-4 1-3-8-5-2-2 1 12-1 4h-2l2 3-1 4-1 1-2 3-2-1 1-2h-3v-2h-2v-2h-9l-10-1h-14l-10 2v3l-9 4 13 1h37l-5 5-24 16-17 11-25 16-11 7-1 1h-121l1-3 23-14 57-36 15-10 5-3 5-1 3-4v-5l-4-4 1-8 4-6 3-7 3-8v-5l-2-5 3-6 3-10 2-2h4l1-7 2-4 2-2 17-50z" fill="#0B3345"/>
<path transform="translate(967,958)" d="m0 0h19l-1 5-3 11 6-15 1-1h67l-2 9-3 10-1 1h-21l-4 16-17 52-3 10-2 1h-26l-1-2 9-24 18-52-21-1-2 10-13 41-7 22-2 6-25-1-3-8-14-58-2 6-4 16-1 11 2 4-1 13-3 17-2 3 1 2v12l2 3-1 2 2 1-10 8-16 11 9-5 13-8 9-4 3-3 47-1 2 2-11 8-16 9-19 12-21 13-20 13 14-8 17-10 28-17 10-6 19-10 11-5 45-1-5 5-11 7-38 24-15 10-16 10-4 2v2h-107v-2l-4 2h-39l-2-2 27-18 25-16 15-10 9-5 11-7 6-2-1-4-2 1-2-2-6 1-2 2 1 4-44-1-3-3v-2l-1-2-10-2-15 1-14 2-2 1-1 2h-8l-1 2 36 2 4 1-2 4-17 11-22 14-38 24-6 4h-49l-2-2 16-10 14-9 15-9h2v-2l10-5 5-2v-2l10-5 20-13 1-4-4-3-2-3-3 5h-2l-1 2v-2h-2l-1 2-12 1-7-1-3 1 4 2-33 1-8 5h-2v2l-4 1 2-4 5-5h-28l-5-5-3-7-6-7v-3l20-1 1-5 16-47 7-18h2l2 10 4 7 5 3 12 3 1 1 16 2 4 4v6l-6 7-3 1-3 3-2 1h-23l-17-3-2 8-5 15 13 1h16l19-1 14-4 9-5 6-5 4-4 2 14 3 4 31 1 3-11h1v7l1 4 9-16 1-4h2l2-5 3-3 2-10 8-5h2v2h-2v3l8-2 20-1 10-2h9 3l7-2 4-4 2-11 4-12 3-5 1 3-1 4 3 1 10-27h31l10 41 14-28 4-13z" fill="#0B3345"/>
<path transform="translate(543,829)" d="m0 0 5 1 14 7 14 9 12 9 7 6 2 3 4-1h7l5 5 4 5-4-1v4l6 18 6 22 1 28 3 4v2l-12 1h-12l3-2h3v-5l-2-1-5-4-5-1-5 1-2 8-1 11-5 16-1 2h-2v7l-4 11v7l-4 16-3 8-5 14-5 12-1 6 23-1 3-3 7-21h2l1-6 10-31 5-14 5-1 10 30 3 8 6 18v12l-5 27-1 4-8 2h-4l4-30 2-27v-12l-1-4-4 20-4 24-3 28-2 1h-10l-1-3-36 1-11 12-4 1-2-1 1-7 1-5-32 1-2-1 1-9-5 1 1-11-2-3-1-10h-2v-9l-3-9-2-15h18l7 2 1 4-12 36 28 1 3-11 15-43 14-41 3-10 3-4 2-5v-7h-19l1-19 1-7-6-1-3-2v-2h-2l-5-5-10-9-9-7-3-2v78l-1 24-1 7-8-6-6-7-4-5-9-15-4-9-4-12-12-16-3-2v-2l-7-2h-8l-14 6 10 25 6 24 2 20v22l-3 5-4 4-2 9-3 7-5 16-1 2h-2l-2-12-4-55-1-24v-29l-11 4-24 9-2-2v-7l-9-3-9-1 1-2 13-2h-45l-40 2-11 1 2-8 8-21 2-3 29-4 30-2h30l25 1h15l-10-4-21 1-2 1h-13l-8-1-3-2-17-2-1-4 2-2 8-2 2-3 3-1h-12l-16 2-29 4 2-4 10-13 8-8 11-9 9-6h10l6 2-1 9v6l7 2 10 1h15l16-1 15-2 11-1 1-1 33-4 29-9 21-9 2-2h3z" fill="#083C53"/>
<path transform="translate(1094,937)" d="m0 0h31l-1 6-16 47-12 36-2 5 62-1 5-21 4-12 8-15 8-10 7-7 14-8 15-4 11-1h20l16 2 10 4 5 4 4 7 1 4v16l9-12 9-9 11-7 12-5 14-3 11-1h13l22 1 10 2 4 2-2 9-4 12-1 1-28-1h-21l-16 3-9 6-6 7-6 13-2 8v10l3 6 4 2 6 1h21l9-1 3-2 5-15-11 1h-12l1-8 5-14 1-1h51l-3 10-15 44-4 8-20 3-30 1-15-1-12-3-9-6-6-9-1-4-1-17-8 16-10 11-14 8-14 4-10 1h-21l-17-2-11-4-5-4-6-10v-4h-2l-3 11-4 11h-95l1-7 12-36 15-44 11-33z" fill="#E7E5E2"/>
<path transform="translate(611,870)" d="m0 0 8 4 9 12 9 16 8 16 5 9 2 12v7l-2 3-3 18v3h-2l1 7 8 20 3-9 2-12v-25l-3-13 1-4 8 10 6 9 4 4v2h21l-1 5-2 8 10-6 5-4 12-4 7-1h24l20 1-2 6-5 13-38 1-8 2 1 5 24 5 10 4 10 9 5-10 4-9 6-16 4-13 3-6 23-1 3 1-3 10-1 2h21l1 3-6 17h-22l-15 42-1 3v10l3 4 7 2-1 8-2 5h-31l-4-5-2-13-6 7-10 6-11 4-5 1-19 1h-16l-11-1-2-1 2-9 5-14 17 2h23l4-1 1-3 5-3 3-4v-6l-3-3-16-2-7-2-10-4-5-6-2-6v-7h-2l-3 10-12 34-7 21-3 5h-23l-2-1-1-9-9-25-3-10-4-10-7-20h-3l-17 51h-2l-1 6-5 15-4 4-23 1-1-5 5-13 5-12 3-10 2-5 3-14 1-9 3-7 1-7h2l3-12 2-6 2-15 2-6h9l7 5 2 5-1 2-3 1h21l-4-6-1-28-4-14-6-20-3-9z" fill="#E8E5E2"/>
<path transform="translate(967,958)" d="m0 0h19l-1 5-3 11 6-15 1-1h67l-2 9-3 10-1 1h-21l-4 16-17 52-3 10-2 1h-26l-1-2 9-24 18-52-21-1-2 10-13 41-7 22-2 6-25-1-3-8-14-58-2 6-7 24-9 29-2 6h-34l-4-16-3-21h-7l-8 16-10 21-1 1h-32l6-12 3-5 1-4h2l2-5 3-3 2-10 8-5h2v2h-2v3l8-2 20-1 10-2h9 3l7-2 4-4 2-11 4-12 3-5 1 3-1 4 3 1 10-27h31l10 41 14-28 4-13z" fill="#E9E6E3"/>
<path transform="translate(527,881)" d="m0 0 5 3 11 9 8 7 4 3v2h2v2l9 3-1 18-1 8h19l1 7-4 8-3 7-12 37-15 43-7 19h-29l2-7 10-30v-3l-7-2h-18l-8 11-17 17-11 8-8 6-8 4h-2l-1-6 4-11 4-13 2-5 2-10 2 2 3-3 1-3v-22l-2-20-6-24-5-13-5-12 15-7h8l7 3 5 5 11 15 6 18 12 20h2l3 6 10 9 1-6 1-24z" fill="#7CD8F2"/>
<path transform="translate(1603,1075)" d="m0 0h14l3 3h3v-2l-3-1h24l-5 4-14 7-3 1-1 2 2 1v-2l10-3 17-8 8-2h33l-5 4-17 10-6 4 20-10h3v-2l2-1 14-1 36-1-3 3-27 15-20 12-22 13-20 12-7 5h-54v-2l-7 2h-45l4-3 21-12 3-2h-4l-21 12-8 5h-38l4-4 5-2v-2h3v-2l11-6 10-7 7-6h2l-1-2-14 8-32 21-3 2h-41v-2l6-3 9-5 3-2h3v-2l5-3h3v-2l5-1v-2h3v-2l5-1v-2l5-1v-2l10-5 5-4 8-4 20-12 8-5 36 1-1 3-11 7h-2v2l7-1 9-5h4l1 2h18l6-3 2-4-14-1 3-2z" fill="#7B95A3"/>
<path transform="translate(377,931)" d="m0 0h17v1l-10 2 13 2 5 5v5l1 3v11l4 50 3 19v5l5 2 13 13 16 14 11 9 16 16 4 2 4-1 9 10 5 3 3 2v2l4 1 3 2v2l6 2 12 9 16 8 8 3 9 5 2 6 1 4-1 1-10-1-19-7-23-12-11-7-11-8-14-11-5-5-13-11-12-11-26-26-9-11-6-8-2-3-20-1h-20l3 5 2 6 6 9 6 4 9 11 11 12 26 26 8 7 10 10 5 3-1 2-5-2v-2l-10-2-7-5v-2l-7-2-8-8-14-8-15-8-7-4-7-8-9-13-11-21-9-21-9-24 1-4 3-4h2l2-4 10-10 11-9 17-13 11-7-3-2h6l1-2h-5z" fill="#083C53"/>
<path transform="translate(354,1026)" d="m0 0h21l20 1 8 11 9 10 7 8 27 27 11 9 7 6v2l4 2 10 8 11 8 8 6 11 6 21 11 21 7h6l-1-4-2-5 1-1h19l-1 7-6 5-16 8-16 5-16 1-15-5-13-6v6l-13-1-32-5-27-7-18-7-8-4-3-2h4l-4-13-10-22-8-13-3-5 6 2 23 12 10 7 4 5 5 1v2h2l4 4 5 3 6 1 2 1v2l5 1-1-1-10-9-9-9-8-7-29-29-9-11-5-5-6-5-4-7-4-9z" fill="#0E7CAA"/>
<path transform="translate(1288,1077)" d="m0 0 31 1h11l-4 4-21 14-31 21-17 12-12 9h-111l5-4 24-15 19-12 5-2h-3l-23 13-28 17-4 3h-54l2-4 19-12 9-5 21-13 25-15 12-8 5-3h116l4 1z" fill="#7B96A3"/>
<path transform="translate(623,1006)" d="m0 0h1l1 6v12l-3 35-3 20-1 2 12-2 2-16 3-15 1-11 2 3 3 10-1 5 25 1 1-2v3h-20l3 5 5 6 3 8 3 2 28 1-2 4-4 4h3v-2l10-6h52l-4 4-17 11-41 27-19 12-6 5h-56l5-4 15-10 10-6 9-5 1-2h3v-2h2v-2l-10 5-16 10-11 7-14 9h-46l-13-7v-1l10-3 10-5 9-6h2v-2l3-2h-13l3-11 1-9 2-4 5-5 4-2-1-2 8-1h17l1 2h12l1-19 3-20 5-30z" fill="#4CBAD6"/>
<path transform="translate(961,1078)" d="m0 0 5 1-4 4-11 7-20 12-16 10-19 12-17 11 14-8 17-10 28-17 10-6 19-10 11-5 45-1-5 5-11 7-38 24-15 10-16 10-4 2v2h-107v-2l-4 2h-39l-2-2 27-18 25-16 15-10 9-5 11-7 1-1h39l-5 5-19 14 11-7 14-7 5-3 2-2z" fill="#96BFCD"/>
<path transform="translate(352,940)" d="m0 0h28l-4 4-13 9-12 9-14 12-8 8-1 2h-2l-2 4-1 4 11 29 12 26 9 16 11 14 6 8 11 19 10 24v5l-8-1-21-11-13-10-13-12-18-22-9-14-9-17-7-18-2-8v-36l3-26 3-12 27-4z" fill="#F85705"/>
<path transform="translate(1350,952)" d="m0 0h13l22 1 10 2 4 2-2 9-4 12-1 1-28-1h-21l-16 3-9 6-6 7-6 13-2 8v10l3 6 4 2 6 1h21l9-1 3-2 5-15-11 1h-12l1-8 5-14 1-1h51l-3 10-15 44-4 8-20 3-30 1-15-1-12-3-9-6-6-9-1-4v-11l2-16 7-21 9-12 9-9 11-7 12-5 14-3z" fill="#E7E5E2"/>
<path transform="translate(1046,1072)" d="m0 0 52 1-4 4-17 11-22 14-24 15-15 10-11 7 5-2 23-13 17-10 24-15 15-9 7-3h53l-5 5-24 16-17 11-25 16-11 7-1 1h-121l1-3 23-14 57-36 15-10z" fill="#97BECC"/>
<path transform="translate(1484,953)" d="m0 0h39l9 1-1 7-5 15-1 1h-44l-8 2-3 2-1 4 3 3 29 4 12 5 5 6 1 3v13l-4 13-7 11-9 8-10 5-9 2-11 1h-47l-2-1 1-8 6-17h45l11-2 5-5 1-7-4-2-25-3-11-4-6-5-3-7v-9l3-11 6-10 8-7 11-5z" fill="#E7E5E1"/>
<path transform="translate(1056,960)" d="m0 0h3v8l1 2v7l-4 1-1 2v1 5l-6 2-12 3-5 5-2 4h-2l-1 9-1 2h-2v4h-2l2 10-4 16-3 7h-2l-2 20-3 3v5l8 1-1 2-39 1-23 11-14 8-26 16-26 15-9 6-2-1 10-7 19-12 23-14 16-10 13-8 6-4-4-1-44 1-4 4-12 5-17 11-2-1 18-13 8-6-2-5-1-3v-10-3l3-11 1-14 1-7-2-6 2-14 5-19 2 2 15 62 1 3 25 1 5-17 16-51 3-10h22l-12 36-14 39-1 3h27l16-49 9-29 21-1 5-16z" fill="#0B3345"/>
<path transform="translate(1744,947)" d="m0 0h13l3 3 8 3v1l-14-1h-32l-15 3-12 5-11 7-7 7-7 11-6 14-4 16-1 7v14l3 10 5 5 8 4 13 2h37l13-2 6-12 4-13-10 2-12 1h-27l-9-3-3-4v-14l6-18 6-9 7-6 9-3 5-1h29l16 3 5-17 1-7 5 2 3 9v8l-2 6-1 10-7 1-6-1-13-2h-10l-9-1-15 2-5 3h-2l-2 4-3 1-1 3h-2l-1 4h-2v2h-2l2 5 1 14 13 2 4 3 4 1h9l11-2 7-2 4 2 1 7-1 5 1 8v6l-2 5-2 8-3 3-1 3-4-1 2 5-12 1-28 1-16 1v2l-23 11-2-1 20-12 7-5h-30l-13 4-14 7-8 1v2l-3-1 1-4 6-1 15-8h-19v2l-4 1-3-3-9-2-1-2v-12l1-1h30l2-9 14-43 12-36 4-11 1-6-3-1 4-1 2 4 6 3v8l5-3 12-7 1-5 10-2 1-2 10 1h10l9-1z" fill="#0B3345"/>
<path transform="translate(1722,952)" d="m0 0h32l16 3 1 1-1 11-4 12-3 1-14-3h-29l-12 3-8 6-6 9-6 18v14l4 4 7 2h27l22-2-2 10-5 12-3 4-13 2h-37l-13-2-10-5-5-7-2-8v-14l4-20 6-15 6-10 9-10 10-7 11-5 11-3z" fill="#E6E4E1"/>
<path transform="translate(613,980)" d="m0 0h4l10 30 3 8 6 18v12l-5 27-1 4-8 2h-4l4-30 2-27v-12l-1-4-4 20-4 24-3 28-2 1h-10l-1-3-36 1-11 12-4 1-2-1 1-7 1-5-32 1-2-1 1-9-5 1 1-11-2-3-1-10h-2v-9l-3-9-2-15h18l7 2 1 4-12 36 28 1 3-11 10-28h1l-3 21v9h4l2-4 6-8-1 7-4 10v4l23-1 3-3 7-21h2l1-6 10-31 5-14z" fill="#044863"/>
<path transform="translate(1424,1078)" d="m0 0h42v2h7l-1 7 6-2 8-5 8-1h29l-5 4-10 7-25 15-16 10-11 6-18 12-6 5h-83l1-3h3v-2h3l1-3 10-7 3-3 20-15 12-10 13-10z" fill="#7B95A3"/>
<path transform="translate(470,817)" d="m0 0h28l23 4 17 5 5 3 1 4-1 2-16 8-19 7-20 6-33 4-1 1-21 2-5 1-16 1h-15l-16-2-2-2v-12l2-6 7-8 8-5 21-3 28-2 10-3 6-4z" fill="#F85705"/>
<path transform="translate(293,1036)" d="m0 0 2 2 5 16 8 16 8 14 8 10v2h2l5 7 20 20 16 12 11 6 16 8 30 10 18 4 28 4 25 3-2 2-17 6-22 4h-31l-15-3-16-5-15-6-20-10-13-9-5-4v-2l-4-2-7-7v-2l-4-2-9-12-12-20-7-17-2-12-1-21z" fill="#16A2D1"/>
<path transform="translate(354,1026)" d="m0 0h21l20 1 8 11 9 10 7 8 27 27 11 9 7 6v2l4 2 10 8 11 8 8 6 11 6 12 7-1 2-5-1-1 2-4-1 1-2h-12l-2-1v2l-6-2-22-11-8-1-2-3h-4l-1 2-9-4v-2l-4-2-8-8-2-4-3-1 1-2-5-1-4-3-1 1 11 11 16 14h-3l-9-7-13-13-8-7-29-29-9-11-5-5-6-5-4-7-4-9z" fill="#17A4D3"/>
<path transform="translate(1539,954)" d="m0 0h94l-3 11-2 6-1 7-23-1-10-1-3 12-22 64-2 6-25 1-5-1 3-10 25-70v-1h-33l2-9 4-13z" fill="#E9E6E3"/>
<path transform="translate(1074,990)" d="m0 0 1 4-12 36-9 28h95l3-11 4-11h2l4 10 2 4 12 6 9 2 12 1h21l15-2 13-5 11-7 8-9 8-16 2-2 1 19 3 8 1 3h-3l-3-6-5 5-3 4h-2l-2 5-2 3 1 4-1 5 1 5-1 2-4 1h-7l-1-2 7-1-1-1v-7l-18 7-7 3-5 2h-49l-10 1-1-4 4 1 5-1-3-2 5-2v-2l-4-1-1-4 1-3-8-5-2-2 1 12-1 4h-2l2 3-1 4-1 1-2 3-2-1 1-2h-3v-2h-2v-2h-9l-10-1h-14l-10 2v3l-9 4-19 10-22 14-15 9-26 15-10 6-3-1 15-10 20-13 24-15 25-16 9-6-46-1 1-4 2-2v-5l-4-4 1-8 4-6 3-7 3-8v-5l-2-5 3-6 3-10 2-2h4l1-7z" fill="#0B3345"/>
<path transform="translate(543,829)" d="m0 0 5 1 14 7 14 9 12 9 7 6 2 3 4-1h7l5 5 4 5-4-1v4l6 18 6 22 1 25h-3l-7-14-9-11-12-12-14-11-11-8-14-9-19-8-22-5-4-2v-2l9 1 1-6-1-5 8-5-1-2 12-6 4-1z" fill="#18A4D3"/>
<path transform="translate(372,896)" d="m0 0h30l45 2 12 1-3 2-21 10-21 12-9 6-4 1-49 1-40 2-11 1 2-8 8-21 2-3 29-4z" fill="#E6E5E2"/>
<path transform="translate(461,914)" d="m0 0h8l7 3 5 5 11 15 6 18 12 20h2l3 6 1 3-7 4-11 14h-2l-2 4-8 6-5 4-7 4-9 8-4 4h-2l-2 5-4 2 1-8 2-5 2-10 2 2 3-3 1-3v-22l-2-20-6-24-5-13-5-12z" fill="#97E0F5"/>
<path transform="translate(961,1078)" d="m0 0 5 1-4 4-11 7-30 18-2-4h-11l-2 1h-16l-7-1-4-1-22 14-24 16-4 3-6 2h-39l-2-2 27-18 25-16 15-10 9-5 11-7 1-1h39l-5 5-19 14 11-7 14-7 5-3 2-2z" fill="#91BCCC"/>
<path transform="translate(1658,1075)" d="m0 0h33l-5 4-17 10-6 4 20-10h3v-2l2-1 14-1 36-1-3 3-27 15-13 8-5 1-7 3-9 2-2 5-7-2-2 1-32 3h-5l-16 8-6 2 3-3 21-12 3-2v-2h-2v2l-7 2-1 3-4 2-7-1-10 3-15 2-6-2h-5v-2l7-3 26-13 17-10-1-3 10-3 17-8z" fill="#7994A1"/>
<path transform="translate(989,958)" d="m0 0h67l-2 9-3 10-1 1h-21l-4 16-17 52-3 10-2 1h-26l-1-2 9-24 18-52 1-2h-22l1-5 5-13z" fill="#E5E3E0"/>
<path transform="translate(436,935)" d="m0 0h2l2 53 3 42v16l-3-3-9-2-4-3-4 2-1 2-4-2-6-5-2-1-4-24-4-50v-11l6-4 15-6z" fill="#95DEF3"/>
<path transform="translate(556,937)" d="m0 0h26l-1 7-2 5-4 16-18 53-13 37-1 2h-29l2-7 10-30 3-5 12-36 14-41z" fill="#E9E6E3"/>
<path transform="translate(695,1079)" d="m0 0h52l-4 4-17 11-41 27-19 12-6 5h-56l5-4 15-10 10-6 9-5 1-2h3v-2l10-5 15-10 8-5h2v-2h3v-2z" fill="#4CBAD6"/>
<path transform="translate(1222,976)" d="m0 0h19l10 3 3 3 1 3v9l-5 18-7 12-7 6-10 4-18 1-12-1-6-3-2-4v-12l5-16 5-9 6-7 12-6z" fill="#083C53"/>
<path transform="translate(1647,953)" d="m0 0h20l3 1v6l-12 36-17 50-4 12h-30l10-29 15-44 9-29 1-2z" fill="#E9E6E3"/>
<path transform="translate(762,1078)" d="m0 0 38 2 4 1-2 4-17 11-22 14-38 24-6 4h-49l-2-2 16-10 14-9 15-9h2v-2l10-5 5-2v-2l10-5z" fill="#4CBAD6"/>
<path transform="translate(1417,953)" d="m0 0h26l2 1-3 11-14 40-13 37-5 16h-29l1-6 14-38 14-41 6-19z" fill="#E8E5E2"/>
<path transform="translate(1475,947)" d="m0 0 5 2 1 2 10-1 4-3h17l4 3 17 3 2 1 5-2 12-1v-2l6-1 8 3h18l8-1 6 2v1l-54 1-5 1-6 18-5-3 2-9 2-7h-48l-16 3-12 6-6 5-6 10-3 11v9l4 8 8 5 14 3 18 2 5 3-2 9-5 4-11 2h-24l-21-1-3 12-4 11-5 2-3 3h-4v2l-4 1-7-1v-2l-5 3-5 1-6-5v-1l28-1 12-36 15-43 9-25-27-1 1-2 9-1 2-2h12l6 4 3 10 4-2 5-4 6-1 1-3v2h3l-1-3 3-3z" fill="#0B3345"/>
<path transform="translate(1744,947)" d="m0 0h13l3 3 8 3v1l-14-1h-32l-15 3-12 5-11 7-7 7-7 11-6 14-4 16-1 7v14l3 10 2 4 4 6 4 8v7l-1 1 5 1v1l-18 1-13 4-14 7-8 1v2l-3-1 1-4 6-1 15-8h-19v2l-4 1-3-3-9-2-1-2v-12l1-1h30l2-9 14-43 12-36 4-11 1-6-3-1 4-1 2 4 6 3v8l5-3 12-7 1-5 10-2 1-2 10 1h10l9-1z" fill="#0B3345"/>
<path transform="translate(815,1080)" d="m0 0h43l-6 7-20 13-25 16-18 12-11 7-4 3h-48l-1-2 17-11 22-13 7-5 9-5 5-3 5-2v-2l11-6 10-7z" fill="#95BECC"/>
<path transform="translate(690,986)" d="m0 0h2l2 10 4 7 5 3 12 3 1 1 16 2 4 4v6l-6 7-3 1-3 3-2 1h-23l-17-3-2 8-5 15 9 1 4 5 4 7 3 3 4 2 1 5h3v2l-10 2-6 4h-2v2l-4 1 2-4 5-5h-28l-5-5-3-7-6-7v-3l20-1 1-5 16-47z" fill="#0B3446"/>
<path transform="translate(1611,988)" d="m0 0 5 1 5 6v2h3l1 3h-2l1 7-4 8-4 1v6l-3 7-2 6v9l-2 5-1 8 29 1v1l-30 1v13l3 2-7 1-6 2 11 1v4l-5 4-3 1h-18l-1-3-15 6h-5v-2l10-6 4-4h-29v-1h34l1-6-1-16 3-8 4-17 4-8 6-25 3-7z" fill="#083C52"/>
<path transform="translate(1743,1080)" d="m0 0 5 2 13 10 2 3-1 4-10 7-26 15-24 14-6 3h-55l2-2 21-10 15-9 25-14 18-11z" fill="#7C96A3"/>
<path transform="translate(1288,1077)" d="m0 0 31 1h11l-4 4-21 14-31 21-17 12-12 9h-43l-2-2 7-3 11-8 3-3 9-5 27-18 18-13 5-5 1-2h7z" fill="#7C96A3"/>
<path transform="translate(407,1018)" d="m0 0 2 3 1 13 5 2 13 13 16 14 11 9 16 16 4 2 4-1 9 10 5 3 3 2v2l4 1 3 2v2l6 2 12 9 16 8 8 3 9 5 2 6 1 4-1 1-10-1-19-7-23-12-11-7-11-8-14-11-5-5-13-11-12-11-26-26-9-11-6-8-2-4 6 1 4 2z" fill="#073D54"/>
<path transform="translate(527,879)" d="m0 0 9 2 10 7 16 12 5 3 6 7 12 8 10 8 10 9 11 9 4 5-3 2h-12l3-2h3v-5l-2-1-5-4-5-1-5 1-2 8-1 11-5 16-1 2h-2v7l-4 11v7l-4 16-3 8-5 14-2-1-4 7-3 4-4-1-1-11 2-12 4-16 16-47 3-10 3-4 2-5v-7h-19l1-19 1-7-6-1-3-2v-2h-2l-5-5-10-9-9-7-5-2z" fill="#107EAB"/>
<path transform="translate(1046,1072)" d="m0 0 52 1-4 4-17 11-22 14-32 20-7-2-9 1-21 1-2-1-1-9 18-11 17-11 19-12z" fill="#7B95A3"/>
<path transform="translate(1634,954)" d="m0 0h2v2l4-1 1 3-10 33-14 41-7 20-2 1 1-7 1-5 1-9 3-8 2-8 4-2 3-7v-7l1-3h-3l-5-7-5-1-11 3-5 18-3 13-4 8-4 17-3 8 1 17-2 5h-25l-1-5-10-3-4-7-1-3 4-2h24l2-9 17-50 8-23 31 1 2 1v-7l5-15z" fill="#0B3345"/>
<path transform="translate(1534,986)" d="m0 0 19 2 2 4v2l-2 1 1 12-1 1-2 12-11 31-3 7h5l-2 3 3 6 1 3 6 1 5 2 1 4-1 1-16 1-13 8-14 8-6-1-1-2 3-3 13-9-10-1v-1l14-1-2-4-6-2-3-3-1-7 4-10 6-14 4-25v-13l-3-6 5-3h2v-3z" fill="#073C53"/>
<path transform="translate(1426,1104)" d="m0 0h7v3h10v2l3-1 5 2h3v2l4 2 3 2v2l-23 15-6 5h-83l1-3h3v-2h3l1-3 10-7 3-3 20-15 5 4 5-1h13z" fill="#4CBAD7"/>
<path transform="translate(1623,1090)" d="m0 0 2 1-13 8-18 10-11 5-5 3h-4v2l8-1v2l20-2 10-3 5 1 4-2 3-3 5-1v-2l3-1-1 4-24 14 16-8 8-1 32-3 3-1h3v2h3l2-4 9-3 9-4 2 1-9 6-19 11-20 12-7 5h-54v-2l-7 2h-45l4-3 21-12 14-9 9-5 3 1 21-12 4-3 9-3z" fill="#95BCCA"/>
<path transform="translate(365,844)" d="m0 0h10l6 2-1 9v6l7 2 10 1h15l16-1 15-2 12-1-1 8-2 8-1 9h-8l-5-3-11-1-9-3-4-1h-26l-29 2-34 5 2-4 10-13 8-8 11-9z" fill="#98DEF2"/>
<path transform="translate(611,870)" d="m0 0 8 4 9 12 9 16 8 16 5 9 2 12v7l-2 3-3 18v3h-2v2h-2l-6-12v-2l-9 1h-28l-8 14-4 4-5 17-4 11-2 7-1-4 2-9 1-9 3-7 1-7h2l3-12 2-6 2-15 2-6h9l7 5 2 5-1 2-3 1h21l-4-6-1-28-4-14-6-20-3-9z" fill="#7AD7F1"/>
<path transform="translate(1278,1082)" d="m0 0 2 1-13 10-13 9-30 20h-3l-1 3-12 8-4 3-5 2h-65l5-4 24-15 19-12 9-5 11-7 8-4 2 1-3 1v2l-6 4-11 7h-2l2 4 11-1 3-2 20-2 11-3 1-1h7l5-4 5-1 2-2v2l11-7z" fill="#97BECC"/>
<path transform="translate(1384,1077)" d="m0 0h31l-5 4-26 22-17 13-11 9-10 9-5 4h-39l3-3h2v-2l5-4h2v-2l11-8 17-12 16-13 17-12 6-3z" fill="#7A95A3"/>
<path transform="translate(862,959)" d="m0 0h28v2l-10 1-5 4-4 8-2 6h4l-3 12v7h1l1 7v8l-1-2-15 2-4 1-20 1-8 1v-3h2v-2l-9 5-2 10-5 6-1 2h-2l-1 6-2 3h-2l-1-2h-4l-1-3 2-3h5l2-3-1-2 10-20 10-8-7 1-3-1v-3l11-2 13-8 4-4 8-12 10-13z" fill="#054863"/>
<path transform="translate(1017,1078)" d="m0 0h6l-5 5-11 7-38 24-7 4-2-1-4 2-4-1-5 2-23 2-6-3h-3-7l5-4 22-13 13-8 19-10 11-5z" fill="#87A8B9"/>
<path transform="translate(1341,1080)" d="m0 0h26l-5 5-12 10-19 14-28 22-8 7h-39l4-5 18-13 19-13 11-7 18-13 10-6z" fill="#7B95A3"/>
<path transform="translate(1096,1082)" d="m0 0h53l-5 5-36 24-6 1-3 1-2 1v1l-13 2-8 2-10 1h-15l-8-2-2 1-2-2v-2l16-9 19-12 15-9z" fill="#7B95A3"/>
<path transform="translate(293,1036)" d="m0 0 2 2 5 16 8 16 8 14 8 10v2h2l5 7 20 20 13 10v2l-10 1-4 3-1 11-5-1-5-4v-2l-4-2-7-7v-2l-4-2-9-12-12-20-7-17-2-12-1-21z" fill="#4AB9D6"/>
<path transform="translate(754,1014)" d="m0 0h7v19l-1 9-1 2h-2l-1 2-1-9-6 7-10 6-11 4-5 1-19 1h-16l-11-1-2-1 2-9 5-14 17 2 29 1 8-4 5-5 2-3 4-2 4-4z" fill="#BFBEBC"/>
<path transform="translate(618,987)" d="m0 0 2 2 7 21 3 8 6 18v12l-5 27-1 4-8 2h-4l4-30 2-27v-12l-1-4-4 20-4 24-3 28-2 1h-10l-2-15v-17l7-19 12-37z" fill="#073D54"/>
<path transform="translate(1658,1075)" d="m0 0h33l-5 4-17 10-24 14-5 1v2l-8 4-1-2h-2v2l-7 2-1 3-4 2-7-1-10 3-15 2-6-2h-5v-2l7-3 26-13 17-10-1-3 10-3 17-8z" fill="#7C96A3"/>
<path transform="translate(872,1011)" d="m0 0h1l2 16v9l-3 2-14 1-3-21h-7l-8 16-10 21-1 1h-32l6-12 3-5 1-4h2l2-5 3-3 2-10 8-5h2v2h-2v3l8-2 20-1 10-2h9z" fill="#C0BEBC"/>
<path transform="translate(1603,1075)" d="m0 0h14l3 3h3v-2l-3-1h24l-5 4-14 7-3 1-1 2 2 2-9 4-6 2-19 11-5 3-3-1-16 9-5 1-5 2-9 5-1-5 5-5 8-9h2l1-4h-8l-9 3-11 3 3-3 22-12 5-5h5l9-5h4l1 2h18l6-3 2-4-14-1 3-2z" fill="#7693A0"/>
<path transform="translate(915,988)" d="m0 0 2 2 15 62 1 3 7 1v1l-8 1v7l-3 9v2l2 1 30 1v1l-44 1-4 4-12 5-17 11-2-1 18-13 8-6-2-5-1-3v-10-3l3-11 1-14 1-7-2-6 2-14z" fill="#073C53"/>
<path transform="translate(1056,960)" d="m0 0h3v8l1 2v7l-4 1-1 2v1 5l-6 2-12 3-5 5-2 4h-2l-1 9-1 2h-2v4h-2l2 10-4 16-3 7h-2l-2 20-3 3v5l8 1v1h-36l4-3h2l-1-4-3-2-1-4-5-5v-3l4-1h22l16-49 9-29 21-1 5-16z" fill="#0B3244"/>
<path transform="translate(563,1078)" d="m0 0h19l-2 3-9 2-2 4-3 1-2 13-3 9-1 2 15-1-2 3h-3v2l-16 10-10 4-7 1-19-10-4-4 15-13 17-17v4l6-1z" fill="#17A2D1"/>
<path transform="translate(912,983)" d="m0 0h5l-7 12-3 12-12 24-2 8v5l1 2-1 4h3v5h-34l-3-11v-6l13-1 3-1-2-14v-10l7-1 5-5 2-11h2l2-4 1 7-1 2-1 13 2-3 4-9 4-5 1 4 2-4 3-10 4-2z" fill="#EAE6E2"/>
<path transform="translate(410,984)" d="m0 0 7 1 8 11 8 7 7 5 1-2 2 24v16l-3-3-9-2-4-3-4 2-1 2-4-2-6-5-2-1-4-24-1-16 4-2z" fill="#7CD8F2"/>
<path transform="translate(441,933)" d="m0 0 3 1v2h2l7 29 2 16 2 29v16l-3 10-3 8-4 11h-2l-2-12-4-55-1-24v-28z" fill="#083E56"/>
<path transform="translate(495,1022)" d="m0 0h2l-1 5 1 3-15 30-8 15v5l-3 3 5 6v2l-5-2-18-18-14-11-9-9-8-7v-3l1-3 4-1 7 4 8 1 2 1 3 15v3l13-7 10-8 9-7 15-15z" fill="#17A4D3"/>
<path transform="translate(1074,990)" d="m0 0 1 4-12 36-9 28h94v1l-85 1 6 1v2l9-1h11l17 3 4 2 1 3-6 1-2-1v3h5v3l-3 2-8 4-17 9-22 14-15 9-26 15-10 6-3-1 15-10 20-13 24-15 25-16 9-6-46-1 1-4 2-2v-5l-4-4 1-8 4-6 3-7 3-8v-5l-2-5 3-6 3-10 2-2h4l1-7z" fill="#0A3649"/>
<path transform="translate(1082,1015)" d="m0 0 6 2 1 2v11l-1 8h16l41 2 4 5-3 7h-31l-51-1 9-29 4-6z" fill="#C4BFBC"/>
<path transform="translate(836,984)" d="m0 0h4v3l2 1-10 7-7 4-4 1h-7v3l11-1-5 5-5 4-10 20 1 3-4 3h-4l-1 5 5-1 1 5-6 11-1-4-1-3v-8l-8-1-3-5v-10l12-34 3-1h8l2 1h12v-2l11-4z" fill="#044762"/>
<path transform="translate(1222,976)" d="m0 0h19l10 3 3 3 1 3v9l-5 18-7 12-7 6-10 4-18 1-12-1-6-3-2-4v-12l5-16 5-9 6-7 12-6zm24 8-21 3-6 4h-6l-5 5-3 2-3 8-2 19-2 6 3 2h14l2-2 11-2 5-1 5-2 6-8 1-13 2-4h2l3-7 1-7-2-3z" fill="#0C3244"/>
<path transform="translate(961,1078)" d="m0 0 5 1-4 4-11 7-30 18-2-4h-11l-2 1h-16l-7-1-4-1-11 7-2-1 14-9 7-3 18-11 9-4 3-3z" fill="#83A6B8"/>
<path transform="translate(798,1069)" d="m0 0 14 1 4 2 2 4 2 2 39 1 4 1v-2l-2-1 1-3 5-2 3 1 1-2 2 3 2-1 1 4 2 2-8 1-18 12-9 5-20 13-25 16-15 10-2 2v-3l-3-1 22-14 18-12 25-16 11-8 3-3h-42l-10 6-12 8h-3v2l-9 5-7 5-9 5-21 13-16 10-2 3h-2l1-5 60-38 14-9 4-4h-6v-1l-10-1-23-1v-3l10-2 1-2z" fill="#044863"/>
<path transform="translate(1418,1067)" d="m0 0 5 1h10l4 4v1l10 1v1l-17 1 29 1v1l-35 1-28 22-15 12-11 8h-2l-2 4-6 4-4 4h-3v2l-3 1-1 2-6 1-38 1-10-2 5-6 17-13 15-12 8-6h4l2 4-19 14-9 6-4 2v2l-4 1-1 3h-2v2l-4 2h38l11-10 11-9 18-14 10-8 10-9 12-9-13-2-3-2h3v-4l14-2z" fill="#054C68"/>
<path transform="translate(388,876)" d="m0 0h26l12 3 1 1 11 1 5 3 8 1v-9l3 1 2 8-1 5 4 9h-12l-1-2-8-1-6-3-21 1-2 1h-13l-8-1-3-2-17-2-1-4 2-2 8-2 2-3z" fill="#044A65"/>
<path transform="translate(909,1012)" d="m0 0 1 4-1 7 2 4-1 13-3 17-2 3 1 2v12l2 3-1 2h-29l-3-2-1-8-1-3h-2v-2l-9-3-4-6-1-5-1-6h-2l-1-4 1-6-1-4 3-2 2 5 4 22h34l4-16z" fill="#0B3346"/>
<path transform="translate(577,848)" d="m0 0 5 2 13 11 2 3 4-1h7l5 5 4 5-4-1v4l6 18 6 22 1 25h-3l-7-14-5-7h2l-2-5-10-16-4-5-1-3-1-19-6-1-2-2v-10l-2-2-5-4-3-4z" fill="#0D7DAB"/>
<path transform="translate(526,1079)" d="m0 0h22l-1 7-9 10-13 13-10 8-5-2-7-4v-2l-4-2-3-1v-2l-4-2-3-5 5-5 5-3h6v-2l8-4z" fill="#4BBAD7"/>
<path transform="translate(1506,1098)" d="m0 0h3l3 9-1 2 2 5v3l-5 4-23 15-3 2h-41v-2l6-3 9-5 3-2h3v-2l5-3h3v-2l5-1v-2h3v-2l5-1v-2l5-1v-2l10-5 5-4z" fill="#4BB9D6"/>
<path transform="translate(1623,1090)" d="m0 0 2 1-13 8-18 10-11 5-5 3h-4v2l8-1v2l20-2 10-3 5 1 4-2 3-3 5-1v-2l3-1-1 4-24 14-15 8-6 1-8 4h-45l4-3 21-12 14-9 9-5 3 1 21-12 4-3 9-3z" fill="#97BECC"/>
<path transform="translate(1110,1114)" d="m0 0h6v2l3-1 6 2h9l16-2 2 1v2l3-1h3v3l-25 15-4 3h-54l2-4 19-12 9-5z" fill="#97BDCC"/>
<path transform="translate(1272,1041)" d="m0 0h3l2 7 3 1 4 10 3 3v2l4 2 2 5 7 1-4 3h-2v2h-6v2h-2l-1 2-1-2h-52l-62-1v-1l7-1 47 1 1-2 9-3 12-5 5-2h3l1 7 1 2-7 1h11l-1-8 1-5-1-4 5-7h2l2-4z" fill="#073C53"/>
<path transform="translate(572,887)" d="m0 0 5 2 14 11 12 11 8 8 7 10 8 15 3 4v2h-9l-6-7-11-9-11-10-17-12-5-4v-8z" fill="#073D54"/>
<path transform="translate(967,958)" d="m0 0h19l-1 5-3 12v2h22v1h-22l-2 10-13 41-7 22-1 5-5-1 6-21 9-27 3-13-1 3h-2l-2 4-2 1h-6l-1 2-4-4 3-11 2-7-1-2 4-8 4-13z" fill="#BFBDBC"/>
<path transform="translate(1594,976)" d="m0 0 34 1v2l-2 1-14 1-3 2h-10l-2-1v2l-2 1-3 8-1 15-4 13-4 4h-2l-1 6-2 9v12l-2 6-2 17v3h-19l-1-5-10-3-4-7-1-3 4-2h24l2-9 17-50z" fill="#0E2936"/>
<path transform="translate(527,881)" d="m0 0 5 3 11 9 8 7 4 3v2h2v2l9 3-1 18-1 8-10 1-4 2-6-10-4-6-5-12-2-6-3-4-1 9h-1z" fill="#4CBAD6"/>
<path transform="translate(527,879)" d="m0 0 9 2 10 7 16 12 5 3 6 7 12 8 10 8 10 9 11 9 4 5-3 2h-12l3-2h3v-5l-2-1-5-4-5-1-5 1-2 4-1-4-4-1-4 1v-3h-19l1-19 1-7-6-1-3-2v-2h-2l-5-5-10-9-9-7-5-2z" fill="#16A4D2"/>
<path transform="translate(525,843)" d="m0 0 4 1-7 5h-2l2 5-1 4-1 2-9-1v2l17 4 12 3 20 9 11 8 1 1-1 14-1 7-3-2v-2l-5-2-16-12-10-7-9-2 1 10v9h-1l-1-8-2-6v-13l-4-2v-2l-6-2-8-8v-3l6-5 6-3h2v-2z" fill="#044863"/>
<path transform="translate(360,937)" d="m0 0h15l4 2-3 1-41 2-31 4h-5l-4 28-1 10v36l2 8 9 22 11 20 13 17 9 10 6 7 8 7 12 9 23 12-1 2-16-8-5-2v-2l-5-1-11-9-3-3-2 1-2 2v-2l-7-2-9-10v-2h-2l-10-14-7-12v-5l1-2-10-19-2-7-3-9-2-4-1-6v-32l1-27 1-10 3-3 10-3 30-4h25z" fill="#0E2936"/>
<path transform="translate(1553,1103)" d="m0 0h9l-2 5-7 6-5 6-2 1 1 2h-2l1 4-13 8-5 3h-38l4-4 5-2v-2h3v-2l11-6 10-7 7-6 4-1h3l11-4z" fill="#4DBAD6"/>
<path transform="translate(1343,1106)" d="m0 0 5 1h4l10 3 2 2 1-1h7l-5 5-11 9-10 9-5 4h-39l3-3h2v-2l5-4h2v-2l11-8 17-12z" fill="#4CBAD6"/>
<path transform="translate(848,1017)" d="m0 0h7l1 1 1 11-3 1 1 6-1 8h2l3 9 2 5 1 2 9 4v2h2l2 3-1 5-2 1-2-2-6 1-2 2 1 4-23-1-1-5 2-10v-8h2v-7l-2-3-2 1v-6l6-1-1-7h-2l1-2 2-1-2-4z" fill="#073C53"/>
<path transform="translate(648,925)" d="m0 0 2 2 2 12v7l-2 3-3 18v3h-2v2h-2l-6-12v-2l-9 1h-28l-8 14-4 4-5 17-4 11-2 7-1-4 2-9 1-9 3-7 1-7h2l3-12 2-6 2-15 2-6h9l7 5 2 5-1 2-3 1 21-1 3-1 1 5 7-5h5v2h2v-24z" fill="#17A4D2"/>
<path transform="translate(789,1090)" d="m0 0 3 1-10 7-57 36-6 4h-49l-2-2 11-7 2 1v1l19-3 13-1 17-5 4-4 7-3 7-7 8-3 1-3 7-7 6-2 6 2 12-4z" fill="#93BFCE"/>
<path transform="translate(1161,1052)" d="m0 0 3 2 5 4 4 3h-2l1 6 3 1v2l-4 2 5 2v1h-8l-1 2-2-2v3l3 1-32 20-11 6-1-4 5-5 15-10 4-3h-36l-15-1 5-4 4-2 2-3 10-2h14l19 2v2h2v2h3l1 2 1-4 2-1-1-5h2l-1-16z" fill="#064761"/>
<path transform="translate(982,1113)" d="m0 0h2v8l25-1 9-1 5 2-4 4-14 9-1 4h-59l1-3 23-14z" fill="#96BDCB"/>
<path transform="translate(660,926)" d="m0 0 5 1 1 3 5 1 12 9 6 4 4 2-1 2-5 2v4l11-1 10 1h9l2 1h6l15-5h12l5 5v2l-30 1-14 3-6 3-8 6-6 2-1 2 1-7 3-8h-21l-2-4-5-5-9-13-1-4z" fill="#0B3345"/>
<path transform="translate(955,1116)" d="m0 0 2 2 4-2v3l-10 7-14 9-3 1v2h-55l2-4 22-13 4-2 9-1 2-1 1 2 6 2 22-2 6-2 2 1z" fill="#97BDCB"/>
<path transform="translate(906,961)" d="m0 0 2 2 2-1 1 2 9-2 10 1 2 5 2 11-1 9-4 4-9-2-3-6-7 1-3 2-6 17-1-4v-3l-5 7-4 11-2-2 1-13 1-7-3 2 1-6 4-10 2-1-1 7 3 1z" fill="#C2BEBC"/>
<path transform="translate(1017,1078)" d="m0 0h6l-5 5-11 7-12 8-8-1-8 4h-17v-2l-13 1v-2h-2l1-4 19-10 11-5z" fill="#7A95A3"/>
<path transform="translate(501,1014)" d="m0 0h18l7 2 1 4-12 36 27 1v1l-25 1 8 2 1 7v8l-1 2h23v1l-32 1-2-1 1-9-5 1 1-11-2-3-1-10h-2v-9l-3-9z" fill="#107CA9"/>
<path transform="translate(890,959)" d="m0 0h7l-1 13-2 7-6 16-3 13-5 4-6 1-2-2-2-11h-1v-8l2-8 2-4-5 1 3-10 5-7 4-3h10z" fill="#F75705"/>
<path transform="translate(1520,1008)" d="m0 0h1l2 11-3 17-4 3h-2l-2 6-1 2h-2v9l-4 8-7 3h-51l-13-2-10-2-3-1-1-3 49-1 16-2 10-4 9-6 7-9 5-10 3-12z" fill="#0E2836"/>
<path transform="translate(804,1087)" d="m0 0 5 1 9 2h3l1 5h-2l-1 2-3-2-1 3-9 4-3 1-4 5-7 4-7 2-3 6-4 2-10 2-16 3-6 1-2-4 26-16 11-7 7-4h2v-2l11-6z" fill="#4CBAD6"/>
<path transform="translate(1126,937)" d="m0 0 1 2 5 2 1 2v10l-3 6-4 5-4 10-2 13-5 12-3 4-3 14-2 9 2 2 5 1v1l-5 1h-15l3-10 24-73z" fill="#0C3244"/>
<path transform="translate(701,1006)" d="m0 0 14 3 1 1 16 2 4 4v6l-6 7-3 1-3 3-2 1h-23l-16-3 5-4 4-6 6-3h2v-11z" fill="#1A7FAA"/>
<path transform="translate(1729,1114)" d="m0 0 5 1-4 4-25 14-9 5h-55l2-2 21-10 7-4 7 1 6-2h20l12-1 6-4z" fill="#97BDCB"/>
<path transform="translate(1051,962)" d="m0 0h2l-2 6v9l-1 1h-21l-1 2-1-4-4 4h-2v2l-6 2v2l-4-1-3-2-1-7-4-1h-11v-2l-3-1v-3l3-1 1-3 5-2z" fill="#C1BDBB"/>
<path transform="translate(862,959)" d="m0 0h28v2l-10 1-5 4-4 8-2 6v3l-3 5-6 9-10 4-6 4h-5l4-8h-4l1-7 7-12 9-12z" fill="#C0BEBC"/>
<path transform="translate(1327,986)" d="m0 0 1 4v1l8 1-1 7 2 1-4 13v4l9 2 2 2 1 9-3 3h-15l-2-4-10-4-3-5-1-2v-8l8-12 1-7-2-1 3-2 4 1z" fill="#083B52"/>
<path transform="translate(984,981)" d="m0 0h15l1 3v7l-15 43-2 5-7 1-2-1-1-8-2-4v-6l4-11 4-1 2-18 2-9z" fill="#083B52"/>
<path transform="translate(1666,1029)" d="m0 0 7 1 7 5v2l21 4 19 1 13 2 5 2-1 5-12 3h-24l-12-1-7-2-10-2-7-8-1-3v-8z" fill="#C5BFBC"/>
<path transform="translate(340,1031)" d="m0 0 5 3 6 2 7 8 7 9 1 3h2v3l3 1 5 5 1 3 4 2 3 9h2l1 4h2l2 3 3 1v2h2v2h2l4 6-5-2-23-12-7-4-7-8-9-13-11-21z" fill="#074963"/>
<path transform="translate(773,964)" d="m0 0h5l1 4-6 16-9 20-7-6-10-6-23-5-6-2-1-2 1-3 8-3h36v1h5l3-8z" fill="#044762"/>
<path transform="translate(505,1041)" d="m0 0h2l-1 6h2l3 12 1 1-1 9-1 2 5-1-1 9h12l-4 2-11 4-3 2h-3v2l-9 2-4 5-2 1v3l-4-2-6-6v-3l6-4-1-5 3-5h2v-2l5-5 6-13 1-2h2l-2-2 1-7z" fill="#17A4D3"/>
<path transform="translate(1744,947)" d="m0 0h13l3 3 8 3v1l-14-1h-32l-15 3-12 5-11 7-7 7-7 11-6 14-4 13-1-4h-5l-1 2 1-7 12-36 3-8 1-6-3-1 4-1 2 4 6 3v8l5-3 12-7 1-5 10-2 1-2 10 1h10l9-1z" fill="#0B3345"/>
<path transform="translate(870,1079)" d="m0 0h39l-5 5-19 14h-9v2l-5 1-1 2-7 2-11 2-2-5 2-7 3-3h3v-2h2l1-5z" fill="#87A8BA"/>
<path transform="translate(872,1011)" d="m0 0h1l2 16v9l-3 2-14 1-3-21h-7l-11 22-1-2h-2v-3l-9 2-6-2 3-5 5-6 5-4 1-2 2-1h-9v-1l6-1 20-1 10-2h9z" fill="#7D98A5"/>
<path transform="translate(1475,947)" d="m0 0 5 2 1 2 10-1 4-3h17l4 3 17 3 2 1 5-2 12-1v-2l6-1 8 3h18l8-1 6 2v1l-54 1-5 1-6 18-5-3 2-9 2-7h-48l-16 3-12 6-6 5-6 9h-2l-2-3 1-9 4-11-27-1 1-2 9-1 2-2h12l6 4 3 10 4-2 5-4 6-1 1-3v2h3l-1-3 3-3z" fill="#0C3243"/>
<path transform="translate(754,1068)" d="m0 0 4 3 3 2 1 6-19 12-10 6h-3v2l-12 7h-3v2l-27 16-15 10-3 3v1h-8v-3l15-10 19-12 30-20 20-13h-37v-1l9-1v-1l10-2 8 1 10-1 7-3z" fill="#054E6B"/>
<path transform="translate(447,923)" d="m0 0 2 3 7 17 6 22 2 11 1 14v22l-3 5-5 4-2-21-2-28-4-20-4-16 1-7z" fill="#0E7CA8"/>
<path transform="translate(1e3 1099)" d="m0 0h3l-2 8 6 1 10-1h12l10 1v-2h2v-2l4-4 8-1v2l-20 12-13 9-8-2-9 1-21 1-2-1-1-9 18-11z" fill="#87A8B9"/>
<path transform="translate(425,919)" d="m0 0h7v7l2 5 4 1-1-11 2-2 6 1 2 2v7l-2 7-4-2-3 2-11 3-24 9-2-2v-7l-9-3-9-1 1-2 26-4 4-1v-2l5-4z" fill="#044965"/>
<path transform="translate(1280,1107)" d="m0 0 5 1-5 5-19 13-16 12h-37l-3-2 8-3 1-2 12-4 6-3h8v-2l19-6 6-3 7-2z" fill="#96BDCB"/>
<path transform="translate(407,1018)" d="m0 0 2 3 1 13 5 2 13 13 16 14 6 5-3 1 1 5-2 2-2-2h-3l3 3-1 3-7-6-24-24-9-11-6-8-2-4 6 1 4 2z" fill="#044863"/>
<path transform="translate(1518,1012)" d="m0 0h1v7l-4 13-7 11-9 8-10 5-9 2-11 1h-47l-2-1 1-8 5-15 3 4v2l24 2 7 3 1 4-2 2-12 1-23 1v2l59-2 11-4 6-4 6-5 7-11 3-9z" fill="#C2BEBC"/>
<path transform="translate(379,941)" d="m0 0 3 1-8 5-5 5-10 7-3 5-9 6-5 5-5 2-2 4-4 4 2 4 2 3v2l2 1 4 11 2 7 5 5 1 5-5 2h-4l1 6-2 3-8-18-9-24 1-4 3-4h2l2-4 10-10 11-9 17-13z" fill="#0C3244"/>
<path transform="translate(1378,1032)" d="m0 0h1v6h-2v15l5-5 2-1-3 11h-6l-7 4-8 1v-2l-17 2-4 2-2 7-7 2-10-1-5-2v-5l-2-2-9 1v-2l-10-1-2-1v-2l-3-1-2-4 16 4 25 1 20-1 14-2h6l2-6 6-16z" fill="#0E2937"/>
<path transform="translate(690,986)" d="m0 0h2l2 10 4 7 3 4-1 11-5 3h-3l-2 4-4 5-3 1-6 17h-4l-5 8-2-1 15-45 8-22z" fill="#044762"/>
<path transform="translate(613,980)" d="m0 0h4l2 7-3 12-12 37-5 13-3 9-3 1v-2h-9l4-6 6-19h2l1-6 10-31 5-14z" fill="#054863"/>
<path transform="translate(409,1059)" d="m0 0 5 1 3 2 9 1 5 5 2 4 3 5v4l3 1 5 5v4l2 1h-3v4l-6-1-4-3-11-3v-2l-5-1-4-5-3-6-2-1v-2l-3-1 2-4 1-7z" fill="#4BBAD6"/>
<path transform="translate(343,1108)" d="m0 0 4 1 11 10 4 1v2l5 1 10 6 9 4h3l10 4 7 4v4l-7 2-1 3-6-1-16-8-10-6-12-9-10-9-7-7 3-1h3z" fill="#0B3447"/>
<path transform="translate(1652,1014)" d="m0 0 1 2v8l-1 2h-2v2h-2l1 3 2 2-3 12-2 6-2 13v10h-28l-3-5-2-2v-6l-1-2h27l2-9 11-33z" fill="#0E2835"/>
<path transform="translate(445,863)" d="m0 0h9l-1 8-2 14h-8l-5-3-11-1-9-3-5-2-7-1v-6h3v-2l14-1 18-2z" fill="#7BD8F2"/>
<path transform="translate(744,1032)" d="m0 0h5v3l-3 5-5 4-11 5-8 2-35 1-2-1v-4h3l1-3 7-3 27-3 10-4 8-1z" fill="#7C96A3"/>
<path transform="translate(1154,1041)" d="m0 0h4l-2 6-2 2v9l-3 6-10 4h-5l-2-1-3 2h-18l1 2h-2v2h-9v-3l7-1v-2h-4v-2l-13-1-9-1h-15l-6-2-6-1v-1l91-1z" fill="#0E2835"/>
<path transform="translate(649,926)" d="m0 0h3l4 6 1 2 1 8 2 9v25l-4 20-2 3-10-25 1-4 2-2-1-3 3-16 2-3-1-15z" fill="#044964"/>
<path transform="translate(621,1120)" d="m0 0 3 1-9 6-17 11h-46l-13-7v-1l10-3 6-2v2l5 1h8l8 2h9l16-4 11-3z" fill="#7CD7F1"/>
<path transform="translate(774,1028)" d="m0 0 5 2 2 5h2v-5h1l2 8 2 2 7 2-1 8-2 5h-31l-2-3 4-11 2-1 3-6h2l1-4z" fill="#C0BEBC"/>
<path transform="translate(970,1057)" d="m0 0 6 1 5 3 3 4 1 4 3 2v4l-4 2 33 1v1l-39 1-23 11-14 8-26 16-26 15-9 6-2-1 10-7 19-12 23-14 16-10 13-8 6-4-1-2h4l1-20z" fill="#073D54"/>
<path transform="translate(1063,1101)" d="m0 0 2 1 2 5 2 1 16 1 16-2 4-2 12-2v2l-9 6-6 1-3 1-2 1v1l-13 2-8 2-10 1h-15l-8-2-2 1-2-2v-2l16-9z" fill="#87A8B9"/>
<path transform="translate(656,934)" d="m0 0 5 5 10 14 4 4 1 7-3 7-3 3-6 18-4 11h-2l-1 3-1-4h-2l2-10 3-16v-25l-3-13z" fill="#8BD9EF"/>
<path transform="translate(623,1006)" d="m0 0h1l1 6v12l-3 35-3 20-1 2 3 1-3 1-2 4h-3l-1 3-8 3-3-4-2-9h13l1-19 3-20 5-30z" fill="#159DCC"/>
<path transform="translate(1504,1091)" d="m0 0 6 3 1 2-9 5-11 7h-3v2l-5 1v2l-5 1v2h-3v2l-5 1v2l-6 3h-2v2l-6 3-9 5-3 2h-3v2h31v1l-39 1-8 1-2-1-20-1v-1l29-1 10-8 16-10 17-10 20-12z" fill="#054D6A"/>
<path transform="translate(529,909)" d="m0 0h1l2 8 1 9 3 6 5 21-1 7-2 10v3h-2l-1 7-5 4-3 4v-28l1-50z" fill="#97DEF3"/>
<path transform="translate(636,1037)" d="m0 0 2 3 3 10-1 5 25 1 1-2v3h-20l3 5 5 6 3 8 3 2v2l4 1 1 3-5 1-7-4v-2l-21 1-5 1v-2h3l2-16 3-15z" fill="#17A4D2"/>
<path transform="translate(1461,998)" d="m0 0h13l1 1 21 1 9 1 6 4 4 8-3 2-6 1-2 1h-6l-6-5-23-3-10-3-3-5z" fill="#C5BFBC"/>
<path transform="translate(1531,1106)" d="m0 0 2 1-3 3-8 7-11 7-6 4h-3v2h-3v2l-8 5 2 1 25 1 1 3-5 5h-16l-3-1v-2l-31 1-8-1v-2l-3-1h3v-2l26-2 29-19 18-11z" fill="#0B3345"/>
<path transform="translate(1418,1067)" d="m0 0 5 1h10l4 4v1l10 1v1l-17 1 29 1v1l-35 1-28 22-4 3h-9l5-5 13-12 12-9-13-2-3-2h3v-4l14-2z" fill="#083A50"/>
<path transform="translate(922,1034)" d="m0 0 4 4 2 10 3 6 9 2v1l-8 1v7l-3 9v2l2 1 30 1v1h-44l1-5v-9l-3-2-2-10 2-9 3-5 3-1z" fill="#044762"/>
<path transform="translate(556,1086)" d="m0 0 1 3-3 9-1 9-4 6-5 2v2h-7l-2-6-5 2-5 3h-2l2 6-7-1-4-4 15-13 17-17v4l6-1z" fill="#0D7CAA"/>
<path transform="translate(1168,1033)" d="m0 0h16l5 5 6 2 14 2 1 1v5h-3l-1 3-6 1h-16l-12-3-8-7v-6z" fill="#BEBEBE"/>
<path transform="translate(352,930)" d="m0 0h49l-4 2-20-1 1 6h5l-1 3-10-2-12-1v2l-11 1h-14l-30 4-8 2v-2l11-4 7-4h5v-2l-2-2 9-1z" fill="#0B3345"/>
<path transform="translate(454,995)" d="m0 0h1l2 15v16l-3 10-3 8-4 11h-2l-2-12-1-13v-28l7 7 1-9z" fill="#0C3548"/>
<path transform="translate(1312,1119)" d="m0 0 3 2-13 11-7 6h-39l4-5 12-9h18l15-4 4 2 3-1z" fill="#95BDCC"/>
<path transform="translate(554,1138)" d="m0 0h19l-1 7-6 5-16 8-12 4h-7l-5-2 1-12 6-3 13 2 10 1-1-4-2-5z" fill="#16A2D1"/>
<path transform="translate(631,1028)" d="m0 0h2l3 8v12l-5 27-1 4-8 2h-4l5-37 1-2 1-10 5-1z" fill="#0B3446"/>
<path transform="translate(1440,1007)" d="m0 0 1 2h3l4 6 3 1 2 5 9 6-1 4-1 1 12 1v1h-24l-19-2-1-2 3-8-1-7 3-6z" fill="#073C53"/>
<path transform="translate(890,991)" d="m0 0 2 2-1 7-1 15-3 8-2 8 3-5h1v6l-4 10-10 1-8 1v-2h-6l-2 2v-6l13-1 3-1-2-14v-10l7-1 5-5 2-11h2z" fill="#EBE7E3"/>
<path transform="translate(1656,1044)" d="m0 0 1 2h2v2l4 2 7 10 2 5v7l-1 1 5 1v1l-18 1-8 1 1-2-3-2-1-4 2-14 4-9z" fill="#073D54"/>
<path transform="translate(1353,1122)" d="m0 0m-25 1h25l1 4-11 9-2 2h-39l3-3h2v-2l5-4 6-2z" fill="#4DBBD7"/>
<path transform="translate(517,1120)" d="m0 0 16 8 12 5 9 5 2 6 1 4-1 1-10-1-19-7-21-11 4-2 5 1v2l6-1 1-5-4-2z" fill="#044864"/>
<path transform="translate(674,1121)" d="m0 0 1 2h4l1-2v3l-15 10-5 4h-56l5-4 14-9 2 1-1 2 4-1 3 1v2h26l3-1h6l2-3h2l1-3z" fill="#7DD4ED"/>
<path transform="translate(1251,1065)" d="m0 0h3l1 7 1 2-7 1h11v-2h10l10 1v2h3l-1-4 3-3 3-1 12 4-4 3h-2v2h-6v2h-2l-1 2-1-2h-52l-62-1v-1l7-1 47 1 1-2 9-3 12-5z" fill="#044762"/>
<path transform="translate(1267,1085)" d="m0 0h7l-3 3-12 8-9 2-6 4h-6l-7 3-12 2-13 1-3 2-11 1h-2v-5l10-6h15l5-1 4 1 13-4h3v-2l13-4 10-2z" fill="#88A9BA"/>
<path transform="translate(870,1071)" d="m0 0 3 3 2-1 1 4 2 2-8 1-18 12-9 5-20 13-25 16-15 10-2 2v-3l-3-1 22-14 18-12 25-16 11-8 3-3-27-1v-1h29l4 1v-2l-2-1 1-3 5-2 3 1z" fill="#074B68"/>
<path transform="translate(754,1014)" d="m0 0h7v19l-1 9-1 2h-2l-1 2-1-9-6 7-2-1-6 1 5-5 3-6-8 1-9 1-9 4h-11v-1h7l1-2 11-3 6-4 6-7 4-2 4-4z" fill="#C2BDBB"/>
<path transform="translate(587,937)" d="m0 0 5 2-1 19-3 8h-8l-3 1-1 4h-2v11l-4 2-2 20h-2l-2 4h-2l-2 7-3 3 2-9 16-47 3-10 3-4 3-9z" fill="#044965"/>
<path transform="translate(726,1123)" d="m0 0h4v2h-2l-2 4-5 2 1 5-3 2h-49l-2-2 11-7 2 1v1l19-3 13-1z" fill="#93BCCB"/>
<path transform="translate(476,917)" d="m0 0 6 2 4 1 8 3 9 20 5 13 4 13v6h-3l-12-20-4-11-2-7-12-16-3-2z" fill="#16A1D0"/>
<path transform="translate(1587,1097)" d="m0 0h5l1 4-21 12-10 7-5 1-11 6-1-5 5-5 8-9h2l1-4 1-2 8-2 3-1 3 1v-2h9z" fill="#87A8B9"/>
<path transform="translate(1260,968)" d="m0 0h13l6 5 1 2v10l-2 5-4 2-10-1-4-6-3-8-2-4h-2v-3z" fill="#C4BFBC"/>
<path transform="translate(611,1012)" d="m0 0 1 4 2 7-1 6-2 2-3 9-3 8-5 5 1 3 5 1 1 4 2 1v2h2l-3 9h2l1 7-1 1h-10l-2-15v-17l7-19z" fill="#0B3447"/>
<path transform="translate(1262,1040)" d="m0 0 1 2-4 5h-2l-2 7-3 1-2 4-3 2-25 1-6 1v2l-8 1-1 2-9 2-6-3-1-3-7-2-12-5-1-2 14 3 12 1h21l15-2 13-5 11-7z" fill="#0E2937"/>
<path transform="translate(1168,1106)" d="m0 0 9 1v2l-17 10-8-1v-2l-11 1-7 1h-9l-9-2-5-2 5-4 5-3 3 1 1 2 12-1 25-1z" fill="#87A8B9"/>
<path transform="translate(384,1070)" d="m0 0 5 1 29 29 8 7 10 10 5 3-1 2-5-2v-2l-10-2-7-5v-2h-2l-1-3-8-6-7-8-2-4-4-2-5-4v-2h-2v-2h-2l-1-7z" fill="#0B3548"/>
<path transform="translate(961,1078)" d="m0 0 5 1-4 4-7 5-9 1-6 1h-7l-5-2-20-1-3-1 9-4 3-3z" fill="#7B96A3"/>
<path transform="translate(839,989)" d="m0 0 2 1-2 6-5 5-7 11-10 5-2 10-5 6-1 2h-2l-1 6-2 3h-2l-1-2h-4l-1-3 2-3h5l2-3-1-2 10-20 10-8-7 1-3-1v-3l11-2 13-8z" fill="#0D7CAA"/>
<path transform="translate(1285,1037)" d="m0 0h10l13 3 9 2 6 3 10 4-1 2-4 1-31-1-9-4-5-5z" fill="#C5BFBC"/>
<path transform="translate(1096,958)" d="m0 0 7 3 1 5-2 4-3 2-3 9v6l-5 7-4 1-1 6-5 5h-3l3-12 12-34z" fill="#C5BFBC"/>
<path transform="translate(529,841)" d="m0 0h6l-1 5 3 5 4 7 3 4-1 5-6 1-22-5-4-2v-2l9 1 1-6-1-5 8-5-1-2z" fill="#0E7CAA"/>
<path transform="translate(1338,1100)" d="m0 0 3 1-11 9-13 10-2 1h-3l-4 2-4-2-14 4h-13l-3-2 13-9 3 1 5 1 10-3 4-1 8-1 6-3h3l4-1 1-3 6-3z" fill="#87A8B9"/>
<path transform="translate(1692,1103)" d="m0 0 2 1-9 6-14 8-6-1-3 1-9 2-4 1-20 3-7 2v-2l-2 1v2h-8l-6 1v-2l17-9 8-1 32-3 3-1h3v2h3l2-4 9-3z" fill="#87A8B9"/>
<path transform="translate(1424,1016)" d="m0 0 1 3-1 5v8l3 1-3 12-4 11-5 2-3 3h-4v2l-4 1-7-1v-2l-5 3-5 1-6-5v-1l28-1 12-36z" fill="#0E2936"/>
<path transform="translate(849,1138)" d="m0 0h68l-2 1 1 3-1 1-15 1-4 1h-33l-13-1-2-1z" fill="#0B3346"/>
<path transform="translate(1395,1115)" d="m0 0 1 2 7-2 21 1h17v2h3v2l-11 2-7 1-13 4-10 2-3 1-4-6h-2l-2-4-2-2 4-1z" fill="#17A5D4"/>
<path transform="translate(1631,946)" d="m0 0 10 1 6 1 2 3h20l1 2-28 1v2h-6v-2l-3 1-89-1v-1l54-1 2-5h13l5 1h9z" fill="#0A374B"/>
<path transform="translate(634,886)" d="m0 0h5l3 3v2l4 1 2 1 4 8v4l6 8 1 3-3-1v-2l-4 3h-8l-13-23-1-6z" fill="#0B3346"/>
<path transform="translate(588,921)" d="m0 0 6 4 11 10 11 9 4 5-3 2h-12l3-2h3v-5l-2-1-5-4-5-1-5 1-2 4-1-4-4-1-4 1v-3h-19v-1l14-1 1-4-2-1 3-1-1-3 3-2 4 2z" fill="#0D7CAA"/>
<path transform="translate(363,1039)" d="m0 0 9 3-1 3 4-3 4 1 2 4 4 1 2 8 1 7 2 7 23 23 8 7 8 8 16 14h-3l-9-7-13-13-8-7-29-29-9-11-11-15z" fill="#50BCD8"/>
<path transform="translate(1472,1099)" d="m0 0h19l-4 4-14 8-10 6-6-1-1-3-2-1v-2l-4 1-4-3 10-7z" fill="#87A8B9"/>
<path transform="translate(447,1069)" d="m0 0 6 1 12 12 2 7 3 1 1 4-6 3-5-1-12-11-5-4-1-5-2-2 4-1 2 2 2-3-2-1z" fill="#0B3447"/>
<path transform="translate(812,1031)" d="m0 0 3 1 3 2-5 4 1 3v2l4 4 2 1 4-1 2 1v-2h2v6h2l-1 4h-32l6-12 3-5 1-4h2v-2z" fill="#DFDFDD"/>
<path transform="translate(870,1079)" d="m0 0h39l-5 5-5 4-7 2h-3-19l-7-5 5-4z" fill="#7C96A3"/>
<path transform="translate(441,933)" d="m0 0 3 1v2h2l5 20v8h-6l-1 13-4 1-1-1-1-13v-28z" fill="#0B3346"/>
<path transform="translate(916,984)" d="m0 0h1v6l-2 1-6 23-9 28-3 11-2-2-2 1-1-3 1-4h-1l1-9 3-9 8-16 3-8 3-10z" fill="#B6BBBD"/>
<path transform="translate(855,979)" d="m0 0 4 4 6 1 2-4h3l-2 6-6 8-4 4-8 3-6 4h-5l4-8h-4l1-7 2-2v2l6-4 5-5z" fill="#7F98A4"/>
<path transform="translate(648,925)" d="m0 0 2 2 2 12v7l-2 3-3 18v3h-2v2h-2l-6-12v-2l-9 1-29-1 3-2h25l2-2v-2l-3-1h7v2l7-5h5v2h2v-24z" fill="#94BBCA"/>
<path transform="translate(1668,966)" d="m0 0 2 3 2 2 3-1 4 1-2 4-7 11-6 14-4 13-1-4h-5l-1 2 1-7 12-36z" fill="#0E2A38"/>
<path transform="translate(815,1080)" d="m0 0h43l-5 6-5-1-14 4-10 2-4-2-3 2-11-3v-3z" fill="#7A96A3"/>
<path transform="translate(754,1052)" d="m0 0 3 1 3 3v5l5 9 1 4-3 4h-2v-3l-4-3-2-3-3 5h-2l-1 2v-2h-2l-1 2-12 1-7-1-3 1 4 2h-16l2-4 6-2h16l5-1 2 1v-2l3-2 3-6 4-4v-6z" fill="#073C53"/>
<path transform="translate(762,1078)" d="m0 0 38 2 4 1-2 4h-7l-7 2-14 1-4 2h-6l-5-2-5-1v-4z" fill="#7A95A3"/>
<path transform="translate(1729,1114)" d="m0 0 5 1-4 4-6 3-5 1-7 2-4 2-3 4-8-1-14-1h-4l-10-2-2-3 4-2 7 1 6-2h20l12-1 6-4z" fill="#87A8B9"/>
<path transform="translate(701,1006)" d="m0 0 14 3v1h-7l-3-1 2 6v5l3 1 3 6-1 2h-2v2l-3 1h-21l-3-2 5-3 4-6 6-3h2v-11z" fill="#20A2CE"/>
<path transform="translate(681,1057)" d="m0 0h5l6 10 3 3 4 2 1 5h3v2l-10 2-6 4h-2v2l-4 1 2-4 5-5h-28l-5-5-2-7 3 1v4l3 1 2 4h19l1-8 1-5h2v-2h-2z" fill="#044762"/>
<path transform="translate(343,1108)" d="m0 0 4 1 11 10 4 1v2l5 1 7 5 2 4-1 5 3 4-5-2-10-6-14-11-12-12 3-1h3z" fill="#0B3447"/>
<path transform="translate(1584,1138)" d="m0 0h53l-1 5-7 1h-20v2l-8 1-12-3-9-2 1-3z" fill="#0B3548"/>
<path transform="translate(568,913)" d="m0 0 2 1v2h2l1-2h3l12 6-2 7-1-2-4-1-1 4-2 1 1 5-5 1h-10l1-18 1-3z" fill="#16A4D3"/>
<path transform="translate(1511,1095)" d="m0 0 4 2 8 1 17 1v-2l3 1-5 4-4 1v2h-3v2l-14 8-5 2v-3l-2-6 1-3-3-7z" fill="#87A8B9"/>
<path transform="translate(1083,1083)" d="m0 0 2 1v3l-3 3-24 15-15 9-26 15-10 6-3-1 15-10 20-13 24-15z" fill="#073F56"/>
<path transform="translate(1382,1103)" d="m0 0h7l2 2-18 14-5 2-2 4-6 4-4 4h-3v2l-3 1-1 2-8 1 3-5 11-9 9-8 17-13z" fill="#054E6B"/>
<path transform="translate(1518,1012)" d="m0 0h1v7l-4 13-7 11-9 8-10 5-9 2-11 1h-47l-2-1 1-4 3 1h37l22-1 11-4 6-4 6-5 7-11 3-9z" fill="#9AABB3"/>
<path transform="translate(446,934)" d="m0 0 5 2 4 10 5 17-1 10h2v6l-2 3-2 5h-2l-4-27-5-19z" fill="#16A2D1"/>
<path transform="translate(859,1086)" d="m0 0 2 1-1 3h-2v2l-5 3-3 9 2 1v2l-8 3-15 2h-6v-3l22-14 9-6z" fill="#4DB9D4"/>
<path transform="translate(670,953)" d="m0 0 4 2 2 9-3 7-3 3-6 18-4 11h-2l-1 3-1-4h-2l2-10 2-9 2 1 3-14 3-1 1-2h2z" fill="#36B0D4"/>
<path transform="translate(629,910)" d="m0 0 3 1 2 3v4h3v2l4 1 2 1 3 11 1 8-5 2-8-9-4-4v-5l-3-7v-6z" fill="#98E1F6"/>
<path transform="translate(608,865)" d="m0 0 6 4 3 4-4-1v4l6 18 6 22 1 25-2 1-3-16-2-18-7-12-4-19v-5-4z" fill="#1BA6D4"/>
<path transform="translate(468,814)" d="m0 0 12 1h19l13 2 10 3 13 4-3 1-21-5-13-2h-28l-9 1-9 5-7 2-37 3-12 2-9 6-7 8h-3l2-4 6-7 12-6 7-1 7-2 12-1h19l9-2 3-1 1-3z" fill="#0F2835"/>
<path transform="translate(1150,1044)" d="m0 0 1 3v3l-1 6-1 2h-95l1-4v3h3v-2h88l3-9z" fill="#C3BFBD"/>
<path transform="translate(800,1079)" d="m0 0h8l-2 5-3 2 1 2-11 7h-3v2l-9 5-7 5-9 5-21 13-16 10-2 3h-2l1-5 60-38 14-9 4-4h-6l3-1z" fill="#07597A"/>
<path transform="translate(1258,1040)" d="m0 0 2 3-7 6-14 7-11 3-10 1h-21l-17-2-4-2 1-1h43l13-2 13-5 11-7z" fill="#BABABA"/>
<path transform="translate(360,937)" d="m0 0h15l4 2-3 1-41 2-31 4h-5l-4 28-1 10v42h-1l-2-10v-20l2-32 1-11 4-8 13-3 24-3h25z" fill="#0F2835"/>
<path transform="translate(1280,1107)" d="m0 0 5 1-5 5-8 5-3-1-6 4-1 2-14 3-12 2-5 2-13 1 3-2 11-5h8v-2l19-6 6-3 7-2z" fill="#88A9BA"/>
<path transform="translate(1386,1020)" d="m0 0h5l2 5-8 22-5 5-3 1-1-3 1-12h2l-1-5-1-2 2-6 4-1v-3z" fill="#0B3345"/>
<path transform="translate(997,952)" d="m0 0 5 1 17 1 16 2 1 2-47 1-6 15-2 1 3-12 2-5-19 1-5 16-4 5 1-5 2-7-1-1 1-9h2l1-2 28 1v-4z" fill="#0C2F40"/>
<path transform="translate(1772,962)" d="m0 0h2l2 6-2 6h-2v5l-4 3-9 2h-7l-3-1v-2h-36l2-2 5-1 16-1h20l9 2 5-15z" fill="#0E2836"/>
<path transform="translate(1161,1052)" d="m0 0 3 2 5 4 4 3h-2l1 6 3 1v2l-4 2 5 2v1h-8l-1 2-2-2v3l3 1-8 5h-10l2-1v-3l6-2v-3l2-1-1-5h2l-1-16z" fill="#073C53"/>
<path transform="translate(513,816)" d="m0 0 15 3 15 6 8 3h7l7 4 12 1 5 2-3 4-4 1-3 2-5-1-12-7-20-8v-2l-18-4-5-2z" fill="#0C3447"/>
<path transform="translate(1373,1037)" d="m0 0h2l-1 5-5 12-1 2-20 3-30 1-15-1-12-3-8-5 3-1 11 4 7 1h44l14-2h5l2-6z" fill="#BAB9B9"/>
<path transform="translate(848,1084)" d="m0 0 4 1v2l-12 8-5 1-9 3-1 3-8-1-8 2-7 2 2-4 2 1 1-2 8-3 1-2h4 2l-2-7 6 2 15-4z" fill="#88A9BA"/>
<path transform="translate(1e3 1138)" d="m0 0 39 1v1h-11v2l-3 2-5-1-3-2h-12l-4 3h-8l-4 2-5-1-17-1v-2h-7l-1-1-8-1v-1z" fill="#0B3345"/>
<path transform="translate(876,954)" d="m0 0h9l2 1 9 1 5 3v3l5-1-2 9-6 16h-3-2l3-22 1-5h-35l3-2 11-1z" fill="#112C3A"/>
<path transform="translate(1705,1097)" d="m0 0 3 1 1 3-23 13-14 8-16 9-13 6-2-1 10-7 39-23z" fill="#044863"/>
<path transform="translate(1550,1016)" d="m0 0 1 4-11 31-3 7h5l-2 3 3 6 1 3 6 1 5 2 1 4-1 1h-11l1-3-3 1-1-3v-5l-6-7 1-8 3-7 1-3-4-2 2-5 2-1v-7l1-2 6-3z" fill="#0B3345"/>
<path transform="translate(1670,1055)" d="m0 0 9 2 28 2-2 2-2 6-4 1h-20l-4-4v-2l-3-1z" fill="#0E2835"/>
<path transform="translate(747,1042)" d="m0 0v3l-8 5-11 4-5 1-19 1h-16l-11-1v-2l5-1 40-2 10-3 7-3z" fill="#D7D7D5"/>
<path transform="translate(520 1e3)" d="m0 0 6 1 3 3 2-1v7l-3 8-4-3-5-1-17-1 1-5 8-3 5-2z" fill="#4CB9D6"/>
<path transform="translate(517,846)" d="m0 0 3 1-15 7-9 4-12 3-19 1-3 1-1 7-5 2-2-2 1-11 33-4z" fill="#0C3345"/>
<path transform="translate(1625,1107)" d="m0 0 3 1 1 2-7 2-1 3-4 2-7-1-10 3-15 2-6-2h-5v-2l7-3 8-4 3 1v2l21-1z" fill="#89AABA"/>
<path transform="translate(584,890)" d="m0 0h7l5 1 3 4 10 15 5 8-1 3-8-7-10-10-14-11v-2z" fill="#86A7B7"/>
<path transform="translate(364,1046)" d="m0 0 5 3 5 5 9 10 4 6-2 2v6h2v2h2l13 13v2l4 2 10 10-3 1-5-4-5-5-5-6v-2h-2v-2h-2v-2l-4-1-1-3h-2l-1-4h-2l-3-7-6-7-7-6v-3h-2l-3-5h3z" fill="#073E56"/>
<path transform="translate(1092,937)" d="m0 0 1 4-16 47h-2l2-9 1-2-4-2 1-6 5-13 4-1v-10l5-6z" fill="#0B3344"/>
<path transform="translate(406,1141)" d="m0 0 9 3 14 4v1h-8l2 9-2 1-24-8v-3l2-1 1-2h6z" fill="#073D55"/>
<path transform="translate(376,845)" d="m0 0 5 1-1 9v6l7 2 10 1h15l16-1 15-2 12-1-1 4h-9l-14 2-17 2h-19l-9-1-1-1-8-1-1-14-1-5z" fill="#98BFCD"/>
<path transform="translate(1747,1036)" d="m0 0h1l1 12-4 11-7 8h-9l-4-1v-5l-9-1v-1l19-2 4-2 5-11z" fill="#0E2937"/>
<path transform="translate(1073,1137)" d="m0 0 54 1-3 5-4 1h-8l-6 2v-2h-17l-7-3-7-1-2-1z" fill="#0A3549"/>
<path transform="translate(904,1030)" d="m0 0 1 4-4 14-1 3h-2l1 4-5 8-18 1-9-5-3-3h32l2-10 4-14z" fill="#0E2835"/>
<path transform="translate(777,1135)" d="m0 0h4l1 2 3 1-1 5-6 2h-10l-23-2-1-2h2v-2l2-1 26-1z" fill="#0B3446"/>
<path transform="translate(649,926)" d="m0 0h3l4 6 1 2 1 8 1 4v7l-2 3h-2l-3 11-3 1-1-2v-10l2-9 1-1-1-15z" fill="#084058"/>
<path transform="translate(425,1037)" d="m0 0 5 2 4 2 8 1 2 1v11l-1-2h-2l-1 3-5 1-14-13 2-5z" fill="#4CBBD7"/>
<path transform="translate(572,887)" d="m0 0 5 2 10 8 1 2h-3v5l-2 4h-11l-2-3 1-12z" fill="#0B3345"/>
<path transform="translate(1281,963)" d="m0 0 8 1v2l7 2 5-1 4-2-1 3-8 7-7 8-5 8-1-4v-14l-3-9z" fill="#0B3345"/>
<path transform="translate(457,1097)" d="m0 0 9 3 13 11 17 12 3 2v4l-6 2-4-6-3-1-3-6-5-4-3-2v-2l-8 2-1-4h-4l-1-4-2-1z" fill="#49B9D6"/>
<path transform="translate(293,1036)" d="m0 0 2 2 5 16 7 15-1 2-4-1-3 1-1 10h-2l-2-12-1-21z" fill="#74D3EE"/>
<path transform="translate(829,962)" d="m0 0 2 1v9h-2l-1 7-4 6-4 2-19 1-3 1 1-6 2-3 22 1 1-5z" fill="#0B3345"/>
<path transform="translate(1555,948)" d="m0 0 5 1 6 2h18l8-1 6 2v1l-54 1-5 1-6 18-5-3 2-9 2-7h-4v-2l7 2 5-2 12-1v-2z" fill="#0B3345"/>
<path transform="translate(407,1018)" d="m0 0 2 3 1 13 5 2 5 6-2 1-3-1 1 3-3 3-1-2h-3l-9-10-5-9 6 1 4 2z" fill="#044A66"/>
<path transform="translate(622 1e3)" d="m0 0h3l5 14 3 10-5 4h-3v10l-2 2v-10l1-10v-12l-1-4-4 20-1 8-2-2v-20l1-5 4-1z" fill="#044863"/>
<path transform="translate(1669,956)" d="m0 0 1 4-12 36-17 50-4 12h-26v-1h24l3-11 24-72 5-13z" fill="#A0B6BF"/>
<path transform="translate(824,1012)" d="m0 0h2v2h-2v3l14-1-2 2h-3l-2 4-6 5-5 7-6-1h-3v-3l3-3 2-10z" fill="#B8BFC0"/>
<path transform="translate(421,1149)" d="m0 0h11l10 2 1 5-3 5-2 1-10-1-5-2-2-6z" fill="#0B3447"/>
<path transform="translate(1067,1064)" d="m0 0h18v3l6 2 4-1 6-2 1 5-4 1h-38l1-3 5-3z" fill="#0F2835"/>
<path transform="translate(1657,1050)" d="m0 0 5 2 2 2 3 14v3l-2 1h-9l-2-2-1-8h2l-1-6 2-5z" fill="#044863"/>
<path transform="translate(1531,1106)" d="m0 0 2 1-3 3-8 7-11 7-6 4h-3v2h-3v2l-9 6h-7v-2l16-10 15-10 15-9z" fill="#075676"/>
<path transform="translate(695,1079)" d="m0 0 5 1v2l20-1v3l-10 5-7 1h-9l-5-4-2-2z" fill="#16A3D2"/>
<path transform="translate(490,1153)" d="m0 0 6 2 18 7 4 2-12 1-11-2-11-1-6-2-6-1h-7l-9-3v-1l13 1 14 2h6z" fill="#044863"/>
<path transform="translate(1591,1078)" d="m0 0 17 1v4l-5 4-3 1h-18l-2-4 7-5z" fill="#044D6A"/>
<path transform="translate(905,974)" d="m0 0h1l-1 7-8 12-1 7-5 15-2-2 1-13 1-7-3 2 1-6 4-10 2-1-1 7 3 1 4-10h3z" fill="#829FAE"/>
<path transform="translate(932,1057)" d="m0 0h3l2 10 1 4 10 2 3 2 4-1v2l4 1-13 1h-15l-4-2 3-8 1-9z" fill="#083B52"/>
<path transform="translate(598,958)" d="m0 0 2 2-8 13-4 4-5 17-4 11-2 7-1-4 2-9 1-9 3-7 1-7h2l3-12 2-5 3 1 2 3z" fill="#84B2C4"/>
<path transform="translate(784,1036)" d="m0 0 4 4 7 2-1 8-2 3v-2l-18-1-3-1 1-4 10-6h2z" fill="#7C96A3"/>
<path transform="translate(462,811)" d="m0 0h7l3 3-4 1-13 4-4 4-9 2h-24l-12 2-11 3-8 4h-2v-2l11-5 13-4 6-1h30l6-1-1-3 2-2 5-2z" fill="#0C3345"/>
<path transform="translate(1199,1137)" d="m0 0 12 1v2h-3v2h-2l-1 2-5-1-3 1-3-1-18 1-9-4 1-2z" fill="#0B3345"/>
<path transform="translate(554,1138)" d="m0 0h19l-1 7-6 5-5 2-8-1h-3l1-2 5-1-1-4-2-5z" fill="#0D7CAA"/>
<path transform="translate(1151,1081)" d="m0 0 1 2 6 1-4 4-28 17-2-4 5-5 15-10z" fill="#044762"/>
<path transform="translate(1745,1037)" d="m0 0 1 4-5 12-3 4-13 2h-37l-9-1 2-2 40-1 18-1 2-8z" fill="#B2B4B5"/>
<path transform="translate(1249,1137)" d="m0 0 44 2-1 5h-35l-4-3v-2h-4z" fill="#0B3345"/>
<path transform="translate(1568,1108)" d="m0 0h9v2l-14 9-6 2-11 6-1-5 9-9 5 1 1-3z" fill="#93B9C7"/>
<path transform="translate(484,1036)" d="m0 0v3l-4 2-2 4-6 4-8 10-3 4h-2v2l-12-1-2-7 2 1v3l13-7 10-8 9-7 4-2z" fill="#4BBAD6"/>
<path transform="translate(623,1006)" d="m0 0h1l1 6v12l-2 27-2 3-2-10-2 1v-9l4-25z" fill="#41B3D3"/>
<path transform="translate(1107,1040)" d="m0 0h14l6 2 5 3h5l1 1v5h-12l-16-6-3-3z" fill="#98BFCD"/>
<path transform="translate(594,1032)" d="m0 0 2 2v5l4-1 2-2-1 7-4 14-4 2v-2h-9l4-6z" fill="#7C96A3"/>
<path transform="translate(611,1012)" d="m0 0 1 4 2 7-1 6-2 2-3 9-3 8-5 5-2 1 1-8 6-16z" fill="#0B3345"/>
<path transform="translate(680,1138)" d="m0 0h38l-3 1 2 4-7 2-3 2-3-1v-2h-17l-3-2v-3z" fill="#0C3345"/>
<path transform="translate(710,1010)" d="m0 0 14 1 8 1 4 4v6h-4l-9-1v-2l-9-2-5-6z" fill="#05455E"/>
<path transform="translate(1413,1078)" d="m0 0 4 2-9 6-2 7-14 11h-9l5-5 13-12z" fill="#073D54"/>
<path transform="translate(1594,976)" d="m0 0 34 1v2l-2 1-14 1-3 2h-10l-2-1v2l-2 1-3 8-3 1 2-9z" fill="#0D2C3B"/>
<path transform="translate(430,1056)" d="m0 0h3v2h2v2l5 2 6 4 4 2-3 1 1 5-2 2-2-2h-3l3 3-1 3-7-6-1-8-4-1-1-5-2-1z" fill="#073C53"/>
<path transform="translate(1074,990)" d="m0 0 1 4-16 48-2 1 1-6 3-8v-5l-2-5 3-6 3-10 2-2h4l1-7z" fill="#0B3345"/>
<path transform="translate(677,1079)" d="m0 0h11l-2 4-4 3v3l-21 13-11 7-1-2-2-1 20-12 11-7 1-1h-5l-1-5z" fill="#0C7AA8"/>
<path transform="translate(1227,1116)" d="m0 0 2 1-2 2-10 5-4 3h-3v2h-3v2l-7 4-1 1h-7l1-4h2l2-4 5-4 7-2 4-2h5l2-2z" fill="#C5BFBC"/>
<path transform="translate(1558,1119)" d="m0 0 4 2-11 7-16 9 41 1v1h-83v-1l35-1 17-10z" fill="#044965"/>
<path transform="translate(1124,1099)" d="m0 0 2 1-2 6-19 12-14 8h-3l-1-3 18-11 15-10z" fill="#074059"/>
<path transform="translate(949,1090)" d="m0 0 2 1-4 5-16 9-21 13-21 12-9 6-2-1 10-7 19-12 23-14 16-10z" fill="#09425A"/>
<path transform="translate(682,1031)" d="m0 0 17 2 23 1-3 2-28 2-6 2-5 6h-2l1-7z" fill="#DFE1E0"/>
<path transform="translate(352,960)" d="m0 0 1 3-8 7-9 7-8 10-1 7 8 23 1 2v6l-3-4-11-29 1-4 3-4h2l2-4 10-10 11-9z" fill="#0F2835"/>
<path transform="translate(1251,983)" d="m0 0h2v2h2v9l-5 18-7 12-7 6v-3l6-7 1-2 1-13 3-5 3-2 2-11z" fill="#0B3345"/>
<path transform="translate(1228,948)" d="m0 0 13 1 11 2v1l-24 1-16 2-12 4-9 5h-2v-2l3-2v-3l8-5 9 1 18-4z" fill="#0B3345"/>
<path transform="translate(1364,1139)" d="m0 0h29l8 2-2 4-8 1v-2h-26l-3-1v-2h2z" fill="#0C3345"/>
<path transform="translate(634,1050)" d="m0 0 1 2-4 24-1 3-8 2h-4l3-22h1l1 10h3l6-14z" fill="#073E56"/>
<path transform="translate(449,922)" d="m0 0h7l3 3 4 7 7 4v3h-4v2h-4l-2-4-5-1-4-7-2-1z" fill="#ECE8E4"/>
<path transform="translate(1388,999)" d="m0 0h2v17h2l1-3h2l1-5 3-6 1 3-6 18h-2l-1-2h-8v3h-2l-1 2 1-7z" fill="#0E2A38"/>
<path transform="translate(371,1049)" d="m0 0 5 4 7 8 9 11 21 21 8 7 8 8 16 14h-3l-9-7-13-13-8-7-29-29-9-11-3-4z" fill="#8DBCCD"/>
<path transform="translate(646,1107)" d="m0 0h3v2h-2v2h-3l-1 3-9 5-10 6-15 10-5 3h-2l-1-3 11-7 13-8 19-12z" fill="#065574"/>
<path transform="translate(631,948)" d="m0 0 2 1v2l-4 1v2l2 1-4 2h-25l-4 1 2-4 5-3 24-2z" fill="#4BBAD6"/>
<path transform="translate(1623,1090)" d="m0 0 2 1-13 8-18 10-11 5-6 2-3-3 7-4 3 1 21-12 4-3 9-3z" fill="#96BBC9"/>
<path transform="translate(524,970)" d="m0 0 3 1v13l-1 7-8-6-5-5v-3l4-2 5-4z" fill="#0B374B"/>
<path transform="translate(1029,978)" d="m0 0h22l-2 4-9 2-8 2-1 2h-2l-1 5-1 3h-2l-2 4 2-10z" fill="#0E2936"/>
<path transform="translate(527,879)" d="m0 0 9 2 10 7 16 12 3 3-8-2-2-1v-2l-5-2-9-4-10-8-5-2z" fill="#0D7CAA"/>
<path transform="translate(740,950)" d="m0 0h12l5 5v2h-31l1-3 9-3z" fill="#0C3042"/>
<path transform="translate(445,863)" d="m0 0h9l-1 8-2 14-5-1 3-6h-2l-3-5-3-3v-6z" fill="#47B7D4"/>
<path transform="translate(1186,1103)" d="m0 0 1 2-21 13-19 12-13 8-4-1 5-4 28-17z" fill="#093B51"/>
<path transform="translate(1126,1040)" d="m0 0h19l4 5-3 7h-9v-6h-6l-5-4z" fill="#C4BFBC"/>
<path transform="translate(1475,977)" d="m0 0h9l6 1-2 2-8 2v3h2l1 4 3 1h-8l-8-2-2-4 3-5z" fill="#0E2A38"/>
<path transform="translate(925,968)" d="m0 0h5l1 5-1 4-6 4-11-3-2-4 10-5z" fill="#99BFCC"/>
<path transform="translate(357,930)" d="m0 0h44l-4 2-20-1 1 6h5l-1 3-10-2-12-1v-4-2z" fill="#0C3143"/>
<path transform="translate(1418,1067)" d="m0 0 3 1v6l-4 4-14-1-6-2 3-1v-4l14-2z" fill="#044863"/>
<path transform="translate(925,953)" d="m0 0h7l10 4 2 4-1 7-3 2-2-11h-24l-5-1v-1h13v-2z" fill="#0B3345"/>
<path transform="translate(573,971)" d="m0 0 1 3v8l-4 2-2 20h-2l-2 4h-2l-2 7-3 3 2-9 13-37z" fill="#044863"/>
<path transform="translate(312,898)" d="m0 0h3v2h8v1l-10 1-2 5-8 21-1 2h-2l3-21 1-4h3l1-5z" fill="#0B3446"/>
<path transform="translate(795,1044)" d="m0 0h1v7l1 3-2 5-6 2-15-1-2-1v-2l-9-1v-1h29z" fill="#0F2835"/>
<path transform="translate(424,892)" d="m0 0h8l10 4 12 1v1h-27l-25-1v-1l7-2 2-1z" fill="#074058"/>
<path transform="translate(1761,1099)" d="m0 0h2l-2 4-2 7-7 3-4 3-9 1-3-2 9-6 15-9z" fill="#0B3446"/>
<path transform="translate(1737,1079)" d="m0 0 4 1-1 3-22 12-8 5-3-1 1-4 22-12z" fill="#09394D"/>
<path transform="translate(1013,1017)" d="m0 0 3 2-2 9-8 25-5 1 1-9 4-11 2-1 4-14z" fill="#C5C3C2"/>
<path transform="translate(599,1080)" d="m0 0 17 1 4 2h-2l-2 4h-3l-1 3-8 3-3-4z" fill="#16A3D2"/>
<path transform="translate(1047,1108)" d="m0 0h5l-5 4-18 10-22 13-3-1 15-10 20-13 3-2z" fill="#094057"/>
<path transform="translate(1621,1013)" d="m0 0 1 4-12 35-2 1 1-7 1-5 1-9 3-8 2-8z" fill="#0B3446"/>
<path transform="translate(967,958)" d="m0 0h19l-1 5-5 2h-8l-5 2-2 4h-1l1-9z" fill="#D8DAD9"/>
<path transform="translate(368,1080)" d="m0 0 4 2 5 8 7 10 4 10 4 8 3 10 2 5v3l-5-1-3-2h4l-4-13-10-22-8-13z" fill="#7C96A3"/>
<path transform="translate(681,1029)" d="m0 0 2 2-6 17h-4l-5 8-2-1 7-21z" fill="#044863"/>
<path transform="translate(1184,967)" d="m0 0 2 1-7 7-9 14-5 10-2-2 1-4v-6l6-10 5-5 5-2z" fill="#0B3345"/>
<path transform="translate(814,1020)" d="m0 0h2l-1 7-5 6-1 2h-2l-1 6-2 3h-2l-1-2h-4l-1-3 2-3h5l2-3-1-2 4-8 4-1z" fill="#1079A5"/>
<path transform="translate(1114,973)" d="m0 0 2 4-1 10-1 2h-2l-2 10-5 6-2 3 1-8 8-25z" fill="#0E2A38"/>
<path transform="translate(876,954)" d="m0 0h9l2 1 9 1 5 3v3l5-1-1 6-5-2-3-4v-2h-35l3-2 11-1z" fill="#0D2F3F"/>
<path transform="translate(493,935)" d="m0 0 4 5 5 8 3 9v9l-4-4-4-7-4-11-1-8z" fill="#0E7DAB"/>
<path transform="translate(870,1071)" d="m0 0 3 3 2-1 1 4 2 2-8 1-6 4-6-3-28-1v-1h29l4 1v-2l-2-1 1-3 5-2 3 1z" fill="#065372"/>
<path transform="translate(295,946)" d="m0 0h2l-2 7-2 29-1 14v20l2 11-2 1-2-10v-32l1-27 1-10z" fill="#0C3345"/>
<path transform="translate(812,949)" d="m0 0 2 1v2l6-1 2 1 1 7 6 1v1h-22l3-10z" fill="#0C3142"/>
<path transform="translate(857,1081)" d="m0 0 7 2-3 3-9 6-9 5-7 5-4-1v-2l21-14z" fill="#07435D"/>
<path transform="translate(1163,999)" d="m0 0 1 4-4 13-3 14-1 1h-22v-1l18-2 1-12h2v-2h3l3-11z" fill="#0B3345"/>
<path transform="translate(773,964)" d="m0 0h5l1 4-6 16-2 3v-2h-2v2l-2-1 2-13z" fill="#1A86B1"/>
<path transform="translate(1634,954)" d="m0 0h2v2l4-1 1 3-4 13h-3l-3-2-3 4 1-8 4-10z" fill="#0E2A38"/>
<path transform="translate(400,991)" d="m0 0h4l2 7v21l-5-3-1-3z" fill="#0B3548"/>
<path transform="translate(1363,1083)" d="m0 0 2 1-2 3 1 4-16 12h-4l-2-1 1-3 13-10z" fill="#073E56"/>
<path transform="translate(940,1056)" d="m0 0h17l2 2-4 2-1 2-5 2h-9l-3-3-2-4z" fill="#0E2A38"/>
<path transform="translate(888,1029)" d="m0 0 1 3-4 10-10 1-8 1v-2h-6l-2 2v-6l13-1 3-1 1-2 4 4 3 1z" fill="#C3C0BD"/>
<path transform="translate(1192,1040)" d="m0 0 17 2 1 1v5h-3l-1 3-13 1 2-4h2l-1-6z" fill="#C5BFBC"/>
<path transform="translate(855,979)" d="m0 0 4 4 4 1-1 4-5 5-11 5v-3l5-7 2-7z" fill="#87A8B9"/>
<path transform="translate(667,972)" d="m0 0h2l-1 9-8 22h-2l-1 3-1-4h-2l2-10 1 4h2l1-8 1-2h2l2-9z" fill="#217EA5"/>
<path transform="translate(1707,982)" d="m0 0 2 1-8 6-2 7-3 3-1 3-3 3v8h-2l-1 11h-1v-15l6-16 6-8 2-2z" fill="#0E2A38"/>
<path transform="translate(645,953)" d="m0 0 2 3 1 4-1 7v3h-2v2h-2l-6-12v-5l7-1z" fill="#7B97A5"/>
<path transform="translate(1531,975)" d="m0 0 1 2 34-1-2 6-1-2-11 2-18-2-4-1z" fill="#0D2B3A"/>
<path transform="translate(376,845)" d="m0 0 5 1-1 9v6l7 2 10 1h25v1l-5 1-20 1-20-2-1-14-1-5z" fill="#C2BEBC"/>
<path transform="translate(605,915)" d="m0 0 4 2 8 10v7l-5-2-5-6-5-5v-2l3-3z" fill="#0B3547"/>
<path transform="translate(534,868)" d="m0 0 6 2 7 1 2 7-5 3-3 1-2-1-2-4-2-1v-3l-4-2z" fill="#073C53"/>
<path transform="translate(445,1033)" d="m0 0h4v2h2l1 6-4 12-1 2h-2l-2-12v-8h2z" fill="#0A4159"/>
<path transform="translate(1619,1088)" d="m0 0 4 3-9 4-6 2-19 11-5 3-2-1v-2l12-7 16-9z" fill="#7C97A4"/>
<path transform="translate(666,947)" d="m0 0 4 4v13l-1 3h-2l-2 5h-1l-1 5h-1v-20l1 2 3-3v-3l-2-2z" fill="#7CD8F2"/>
<path transform="translate(1632,1106)" d="m0 0m-1 1 1 3-8 5-24 14-8 4h-6l5-4 3-1 2 1v-2l3-2 4-1 4-3 14-7 3-3 5-1v-2z" fill="#9FD6E7"/>
<path transform="translate(354,1026)" d="m0 0 14 1 6 2v2l-2 1-1 5h-5l-1-3-5-2h-3z" fill="#49B9D6"/>
<path transform="translate(839,989)" d="m0 0 2 1-2 6-8 8 1-4-7 3-8 1-3-1v-3l11-2 13-8z" fill="#0F86B4"/>
<path transform="translate(1385,1099)" d="m0 0 2 1-12 10-10 2-2 1-6-4 3-2 12-2 4-2z" fill="#88A8B9"/>
<path transform="translate(982,1056)" d="m0 0h21l-1 3h-2l-2 4-11-1-9-4z" fill="#0D2B39"/>
<path transform="translate(1711,1129)" d="m0 0 3 1-1 6-5 4-5 2-4-1-5-1v-2z" fill="#0B3447"/>
<path transform="translate(1475,947)" d="m0 0 5 2 4 5-16 3-14 7 2-4 6-5h4l1-3v2h3l-1-3 3-3z" fill="#0B3447"/>
<path transform="translate(997,952)" d="m0 0 5 1 17 1 16 2v1h-43v-4z" fill="#0C3345"/>
<path transform="translate(1607,1059)" d="m0 0 4 1 2 8 3 4v1l6 1 1 4-4 1-3-3-9-2-1-2v-12z" fill="#0A3649"/>
<path transform="translate(1418,1028)" d="m0 0 1 3-9 27h-29l3-2 23-1 6-16 4-10z" fill="#B0B6B9"/>
<path transform="translate(1018,1017)" d="m0 0 1 3v7l-1 4h-2l-1 11h-2l-2 4-3 1 1-7 7-21z" fill="#0E2A38"/>
<path transform="translate(965,1027)" d="m0 0h1l-1 9-5 15-1 5-5-1 6-21 3-6z" fill="#B9BAB9"/>
<path transform="translate(457,1097)" d="m0 0 9 3 10 8-1 2-8 2-1-4h-4l-1-4-2-1z" fill="#47B7D5"/>
<path transform="translate(1371,1074)" d="m0 0 2 1-2 4-4 2-18-1-3-1-1-3z" fill="#064964"/>
<path transform="translate(619,899)" d="m0 0 2 3 4 14 1 25-2 1-3-16z" fill="#4ABAD6"/>
<path transform="translate(526,916)" d="m0 0 2 2v10l-1 13-4-2-1-7v-12z" fill="#0C3345"/>
<path transform="translate(517,846)" d="m0 0 3 1-6 3-21 6-5 2-26 3-6 1-1-3 33-4z" fill="#0E2936"/>
<path transform="translate(998,990)" d="m0 0 1 3-10 29h-2v-17l3-3h2v-2h3l1-5z" fill="#0C3243"/>
<path transform="translate(853,960)" d="m0 0 6 3-13 18-2-2 1-7h2l1-8h2l1-3z" fill="#0B3345"/>
<path transform="translate(1107,931)" d="m0 0 12 1 4 3v2h-29l1-2 8-1 1-2z" fill="#0C3041"/>
<path transform="translate(1439,971)" d="m0 0 3 2v4l2 1-4 13-6-1v2h-2l3-10z" fill="#0B3446"/>
<path transform="translate(556,1057)" d="m0 0h5l-1 12-4 8-5 2v-7h2z" fill="#083C53"/>
<path transform="translate(406,1042)" d="m0 0 5 5 4 6h-9l-8-3v-5z" fill="#0D7CAA"/>
<path transform="translate(1196,993)" d="m0 0h2l1 5-1 9-4 6-5 2 1-8z" fill="#0E2936"/>
<path transform="translate(471,1089)" d="m0 0 4 1 4-1 9 10 5 3 3 2v2l4 1 3 2-1 2-10-4-7-7v-2l-10-3z" fill="#044C69"/>
<path transform="translate(1074,1029)" d="m0 0 11 2-2 2-2-1v2l-9 9-1 7-5 1 5-13v-6z" fill="#98BFCD"/>
<path transform="translate(325,874)" d="m0 0 4 2-2 5-1 2 7-1h9l-1 3-12 3-8-3v-6l4-2z" fill="#0B364A"/>
<path transform="translate(1669,1118)" d="m0 0 2 1-2 3 2 1-25 13-5 1 5-5 22-13z" fill="#054E6B"/>
<path transform="translate(830,1100)" d="m0 0 4 2-5 4-18 12-4-1 5-5z" fill="#074864"/>
<path transform="translate(447,923)" d="m0 0 2 3 7 17 6 22v2h-2l-6-21-4-10h-5l1-7z" fill="#188CB7"/>
<path transform="translate(837,996)" d="m0 0h7l-2 5-12 11-4 5h-2v-3h2l2-5z" fill="#09394E"/>
<path transform="translate(1319,952)" d="m0 0h17v2l-17 5-11 6h-2l1-4 4-1 2-3 4-2v-2z" fill="#0B3345"/>
<path transform="translate(1074,1062)" d="m0 0h15l11 2 1 2-7 4h-5l-4-3v-3l-3 1h-8z" fill="#0C3244"/>
<path transform="translate(665,1054)" d="m0 0 2 2-1 1h-20l3 5 5 6 3 8 1 2h-5l-2-2-1-7-4-4-2-5-1-4h22z" fill="#2983A9"/>
<path transform="translate(296,1038)" d="m0 0 2 2 4 10 7 13-1 3-2 3-8-17-2-7z" fill="#0B3549"/>
<path transform="translate(757,1113)" d="m0 0m-2 1 2 1-5 5-18 11-8 6-2 1 1-5 19-12z" fill="#065676"/>
<path transform="translate(746,1118)" d="m0 0 2 1-10 7-13 8-4 1-1-4 7-4 3-3 8-2h3v-2z" fill="#76D2ED"/>
<path transform="translate(1546,1078)" d="m0 0h33l-1 4-3 3v2l-7 4h-7v-2l10-6 4-4h-29z" fill="#064A65"/>
<path transform="translate(1274,1018)" d="m0 0h1v20l-2-2-3 3-6-1 8-15z" fill="#0E2B39"/>
<path transform="translate(1353,948)" d="m0 0h17l6 2v2h-30v-2z" fill="#0C2F40"/>
<path transform="translate(379,941)" d="m0 0 3 1-8 5-5 5-10 7-3 5-5 3-2-1 3-3 1-4 14-10z" fill="#0C3040"/>
<path transform="translate(795,943)" d="m0 0 5 2 11 2-3 2-23 1-4 10-1-4 4-8 4-2h5v-2z" fill="#0A3548"/>
<path transform="translate(1539,1128)" d="m0 0 1 3-12 7h-14l4-3 3-2 7-2 1-1 8 1 1-2z" fill="#77D5F0"/>
<path transform="translate(726,977)" d="m0 0h22v1l-10 1 3 1v2h-15l-5-1-1 4-3-1 1-4z" fill="#09384D"/>
<path transform="translate(441,933)" d="m0 0 3 1v2h2l1 7-3-1-2 3h-2l-1 19h-1v-28z" fill="#073D54"/>
<path transform="translate(1420,1054)" d="m0 0 4 1 35 1v1l10 1v1h-47l-2-1z" fill="#7C96A3"/>
<path transform="translate(587,939)" d="m0 0 3 1 1 13-3 5-5 1 2-11z" fill="#0B3346"/>
<path transform="translate(1125,939)" d="m0 0 3 2v9l-3 5-6 5-1-3 6-16z" fill="#0E2A37"/>
<path transform="translate(647,1057)" d="m0 0h21l-4 7-2 1v-2h-8l-3-3-4-1z" fill="#0E2835"/>
<path transform="translate(755,1036)" d="m0 0h1v11h-6l-2 4h-2v2l-12 5h-4v-2l16-8 8-8z" fill="#0E2835"/>
<path transform="translate(1397,964)" d="m0 0h2l1 2 4 2-1 5-2 3-4 1-3 4-2-1 4-14z" fill="#0E2936"/>
<path transform="translate(620,934)" d="m0 0 2 2 4 8 3 4v2h-9l-6-7-4-4 5 2 4 3 1-6z" fill="#044B67"/>
<path transform="translate(649,926)" d="m0 0h3l4 6 1 2 1 10-5 3-3 2 1-3-1-15z" fill="#044B68"/>
<path transform="translate(1558,1119)" d="m0 0 4 2-11 7-16 9-1-4 20-11z" fill="#10698D"/>
<path transform="translate(368,1127)" d="m0 0 7 3v3l1 5 2 3-5-2-10-6-1-2h2l1-3z" fill="#073E56"/>
<path transform="translate(1323,1120)" d="m0 0 14 1h18l-2 2-25 1-10 4-2 1-2-2z" fill="#17A3D1"/>
<path transform="translate(1523,1105)" d="m0 0 7 1-3 3-13 8-3-1 2-6 4-3z" fill="#91BDCC"/>
<path transform="translate(1478,1104)" d="m0 0h5l-5 4-11 7-6 2-4-2-1-4h10l4-3 2 1v-2z" fill="#8FBDCD"/>
<path transform="translate(964,1078)" d="m0 0 8 1-1 4-20 10-2-1 4-4 12-8z" fill="#0A3B51"/>
<path transform="translate(761,1051)" d="m0 0 30 1 1 3h-31z" fill="#DCD9D6"/>
<path transform="translate(824,1012)" d="m0 0h2v2h-2l1 5-6 7-8 7v-3l3-3 2-10z" fill="#7D99A6"/>
<path transform="translate(383,1076)" d="m0 0h2v2h2v2h2l13 13v2l4 2 10 10-3 1-5-4-5-5-5-6v-2h-2v-2h-2v-2l-4-1-1-3h-2l-1-4h-2z" fill="#073C54"/>
<path transform="translate(600,898)" d="m0 0 4 4 10 16-1 3-8-7-3-3-1-7z" fill="#83BCCF"/>
<path transform="translate(912,1079)" d="m0 0h5l-4 5-12 5-17 11-2-1 18-13 8-5z" fill="#054B68"/>
<path transform="translate(1687,1077)" d="m0 0 15 2v1l-16 1v2l-23 11-2-1 20-12z" fill="#044863"/>
<path transform="translate(476,917)" d="m0 0 6 2 4 1 6 2-1 3h-2v2l2 1-1 4-4-2-7-9-3-2z" fill="#18A2D1"/>
<path transform="translate(327,1132)" d="m0 0 5 5 7 6 5 5 10 7 5 4-5-1-8-4-7-6v-2l-4-2-5-4-3-5z" fill="#044964"/>
<path transform="translate(851,983)" d="m0 0h2l-2 6-6 8h-6l1-7 2-2v2l6-4z" fill="#7E99A6"/>
<path transform="translate(584,890)" d="m0 0h7l4 1v6l-3 3-6-3-5-4v-2z" fill="#7795A3"/>
<path transform="translate(309,1073)" d="m0 0h6l2 4 3 3 2 10 3 3-1 3-10-14z" fill="#0A384D"/>
<path transform="translate(915,1111)" d="m0 0 3 1-3 3-26 15-9 6-2-1 10-7 19-12z" fill="#085777"/>
<path transform="translate(1461,1055)" d="m0 0h17l-1 3h-52v-1l34-1z" fill="#C5BFBC"/>
<path transform="translate(1669,956)" d="m0 0 1 4-14 42h-1v-7l10-30z" fill="#96B1BD"/>
<path transform="translate(1269,951)" d="m0 0 6 1 1 2 3 2 1 7-10-6-10-3v-2z" fill="#0C3142"/>
<path transform="translate(307,1109)" d="m0 0 1 2h2v3l3 1 1 5h2v3h2l4 6 1 4-7-4-2-2-1-3-1-4h-2l-2-5 1-2h-2z" fill="#0B3345"/>
<path transform="translate(416,1107)" d="m0 0 6 2 5 2h3l9 8 2 1-1 2-5-2v-2l-10-2-7-5v-2h-2z" fill="#044863"/>
<path transform="translate(863,960)" d="m0 0h16v1l-10 1-1 2-6 2-2 4-4 3-2-2 1-4z" fill="#E7E4E1"/>
<path transform="translate(648,925)" d="m0 0 2 2 2 12v7l-2 3-1 6h-1l-1-21v-8z" fill="#47B8D6"/>
<path transform="translate(1226,1118)" d="m0 0 1 2-3 2h-3l-1 3-12 8-4 3-4 1h-12v-1l11-1 2-2 3-2h3v-2h3v-2l6-3z" fill="#9ADDF1"/>
<path transform="translate(703,1105)" d="m0 0h3l-1 3-20 13h-3l2-5h3v-2l11-6h3l1-2z" fill="#70D1ED"/>
<path transform="translate(680,1057)" d="m0 0 2 2v3h2v2h-2l-1 14h-8l2-2z" fill="#083C53"/>
<path transform="translate(830 1e3)" d="m0 0h2l-2 7-3 5-4 1-2-2h-1v-5l8-5z" fill="#199FCD"/>
<path transform="translate(769,961)" d="m0 0 3 1-1 8-3 8-1 1h-15v-1l12-1 3-11z" fill="#0B3345"/>
<path transform="translate(1314,1089)" d="m0 0 4 5-13 9-4 2-1-3 7-5-1-3z" fill="#054661"/>
<path transform="translate(1585,996)" d="m0 0 2 1-3 11-10 29-2-1 3-11z" fill="#A3B5BD"/>
<path transform="translate(493,811)" d="m0 0 8 1 3 1v2l8 1v1h-9l-6-1h-20l-5-1v-1l21-1z" fill="#0C3345"/>
<path transform="translate(1655,1139)" d="m0 0h23l-1 3-10 5-2-1-1-3-2-1v-2h-7z" fill="#0C3345"/>
<path transform="translate(1504,1091)" d="m0 0 6 3 1 2-9 5-9-1v-2l10-6z" fill="#054C69"/>
<path transform="translate(701,1006)" d="m0 0h2l1 3v16l-7-2v-2l-2-1 5-2v-11z" fill="#0E7CA9"/>
<path transform="translate(871,980)" d="m0 0h2l-1 4-5 10-6 7-3-1 6-11 3-3 3-5z" fill="#0A3649"/>
<path transform="translate(505,1081)" d="m0 0h2l-1 4-19 5-5 1-1 2-1-4z" fill="#0C78A5"/>
<path transform="translate(629,1019)" d="m0 0 2 2 2 7-5 4h-3v10l-2 2v-10l3-10h2z" fill="#084059"/>
<path transform="translate(892,993)" d="m0 0 5 1-1 6-5 15-2-2 1-13z" fill="#98AAB3"/>
<path transform="translate(677,1079)" d="m0 0h11l-2 4-4 3h-8l-1-5z" fill="#149BCA"/>
<path transform="translate(1426,1068)" d="m0 0h7l4 4v1l10 1v1l-21 1z" fill="#044762"/>
<path transform="translate(1006,1034)" d="m0 0h1l1 5 1 4-3 10-5 1 1-9z" fill="#CCC8C6"/>
<path transform="translate(524,1016)" d="m0 0 3 1-2 9-7 20-2 1 2-11 5-15z" fill="#044C69"/>
<path transform="translate(556,864)" d="m0 0 3 1 1 7-4 2-7-1 2-5h-2l-1-3h5l3 1z" fill="#47B7D5"/>
<path transform="translate(352,847)" d="m0 0 5 2-5 5-9 8-2-1 1-5 5-4 1-2h2v-2z" fill="#0B384C"/>
<path transform="translate(1468,1077)" d="m0 0 11 1-1 2 3 3-4 4h-5v-6l-6-1v-2z" fill="#044863"/>
<path transform="translate(848,977)" d="m0 0h5l1 4-3 3h-2l-1 3-4 3h-2l1-6z" fill="#C1C6C7"/>
<path transform="translate(1020,1081)" d="m0 0 3 1-2 3 2 1v2l-8 5-3-1-1-4 5-5z" fill="#0A374A"/>
<path transform="translate(444,1047)" d="m0 0h1l2 18-7-4-4-5 4-2 1-2h2z" fill="#169DCB"/>
<path transform="translate(869,989)" d="m0 0 1 3v11l-4 2-7-2 6-8z" fill="#7C96A3"/>
<path transform="translate(1657,1093)" d="m0 0h2v2l-16 9h-3v2l-8 4 1-4 15-9 7-3z" fill="#90B4C2"/>
<path transform="translate(1283,969)" d="m0 0 3 4 2 5 6-3-2 4-8 12-1-4z" fill="#0D2E3D"/>
<path transform="translate(1216,977)" d="m0 0h9l-2 1-1 3-6 2-10 2 1-4z" fill="#0E2937"/>
<path transform="translate(1538,1067)" d="m0 0 4 1v7h3l-1 3-7 2-4 2v-4l3-2z" fill="#044A65"/>
<path transform="translate(902,987)" d="m0 0 2 4-1 7-2 6-1-4v-3l-5 7-1-2 2-5 1-5 3-3z" fill="#B5BFC1"/>
<path transform="translate(937,959)" d="m0 0 2 3 1 9-2 7-2-3-2-5v-10z" fill="#BFBFBE"/>
<path transform="translate(1683,1110)" d="m0 0h2l1 4-14 8h-3l2-5z" fill="#074159"/>
<path transform="translate(1524,1079)" d="m0 0 6 2v4l-7 4h-2l-1-3-2-2 3-4z" fill="#0A3549"/>
<path transform="translate(633,1058)" d="m0 0h2v2l3-1 2 4-4 9-1 2h-2z" fill="#49B8D5"/>
<path transform="translate(352,930)" d="m0 0 8 1v2l2 1-2 3-12 1 1-4 3-3z" fill="#073C54"/>
<path transform="translate(607,858)" d="m0 0 9 3 2 3-1 4-1 2-4-2-3-2z" fill="#0B364A"/>
<path transform="translate(543,829)" d="m0 0 5 1 4 3-7 5-9 3-4-1 8-5h3z" fill="#9FACB3"/>
<path transform="translate(455,861)" d="m0 0h6l1 6-2 4-4 1-2-2z" fill="#0B3447"/>
<path transform="translate(1560,1092)" d="m0 0 2 1-13 8-13 7-2-1 11-8z" fill="#98CEDF"/>
<path transform="translate(1139,1093)" d="m0 0 4 1-5 4-12 7-2-4 3-4 3 1z" fill="#044965"/>
<path transform="translate(1144,1086)" d="m0 0h2v2h-2v3h2v2l-9 2-8 4 1-4z" fill="#073F57"/>
<path transform="translate(587,1056)" d="m0 0 5 1-4 2-7 1-5 1-9-1-2-2 3-1z" fill="#0B3447"/>
<path transform="translate(1630,954)" d="m0 0h3l-3 11-2 6-1 7-23-1v-1h21l1-8 4-11z" fill="#9CB4BE"/>
<path transform="translate(1228,948)" d="m0 0 13 1 11 2v1h-26z" fill="#0C3040"/>
<path transform="translate(1101,1114)" d="m0 0 2 1-2 2 2 1 1-2v3l-10 5-5 3-2-4z" fill="#0B445C"/>
<path transform="translate(463,1097)" d="m0 0 4 2 4 3 5 3 5 4 5 5 2 3-5-2-12-10-7-5z" fill="#054E6B"/>
<path transform="translate(636,1037)" d="m0 0 2 3 3 10-1 5 2 1-5-1-2-1z" fill="#69BED5"/>
<path transform="translate(968,1010)" d="m0 0h2l1 7-4 12-4-1 3-11zm-6 18 2 2h-2z" fill="#B9BDBD"/>
<path transform="translate(938,957)" d="m0 0 5 1 1 5-1 5-3 2-2-11h-11v-1z" fill="#0A374B"/>
<path transform="translate(1150,1124)" d="m0 0m-2 1 2 1-1 3-15 9-4-1 5-4z" fill="#064560"/>
<path transform="translate(489,1111)" d="m0 0 4 1 3 5v3l5 1-3 2-10-5-1-5z" fill="#0B364A"/>
<path transform="translate(415,1042)" d="m0 0h5l3 5v2h-7l2 5-4-2-3-4 1-3 2 1z" fill="#073D54"/>
<path transform="translate(1258,1040)" d="m0 0 2 3-7 6-9 5h-2l2-4 10-7z" fill="#B5B9BA"/>
<path transform="translate(543,969)" d="m0 0 1 4-12 35h-1l1-10 4-10z" fill="#98CADA"/>
<path transform="translate(1532,959)" d="m0 0 3 1 1 5-3 8-5-3 2-9z" fill="#0E2937"/>
<path transform="translate(1086,1124)" d="m0 0h2l1 3-13 9-1-2-4-1z" fill="#0A3D54"/>
<path transform="translate(885,1006)" d="m0 0h1v5l-7 6-4 1-2 4v-10l7-1z" fill="#C4C0BD"/>
<path transform="translate(481,912)" d="m0 0 5 1 8 3-1 4-5 1v-2l-4-1-3-1z" fill="#0B3345"/>
<path transform="translate(595,1139)" d="m0 0 5 1 2 2-1 2h-17v-2l-2-1 4-1h8z" fill="#0C3345"/>
<path transform="translate(1559,1139)" d="m0 0h18l-1 4-3 1-9-1-5-3z" fill="#0C3345"/>
<path transform="translate(573,1138)" d="m0 0h12l-8 4-3 4h-2l-2 4-3 2-4-1 8-6z" fill="#044863"/>
<path transform="translate(624,1007)" d="m0 0h2l4 11-2 6h-2l-1 6h-1z" fill="#064A65"/>
<path transform="translate(505,952)" d="m0 0 2 1 5 16v6h-3l-3-6h2l-3-14z" fill="#43B4D4"/>
<path transform="translate(567,905)" d="m0 0 8 6 10 7-2 1-8-5-5 2-3-4z" fill="#0D7CAA"/>
<path transform="translate(454,860)" d="m0 0 1 4h-10l-4 1h-10l-3-2 15-2z" fill="#9CB4BE"/>
<path transform="translate(1729,1114)" d="m0 0 5 1-4 4-6 3h-6l2-4 2-2z" fill="#89AABB"/>
<path transform="translate(1593,1100)" d="m0 0 2 1-11 7-19 11h-3l10-7z" fill="#044864"/>
<path transform="translate(699,1079)" d="m0 0 30 1-1 2-8 1v-2l-18 2-3-3z" fill="#7C96A3"/>
<path transform="translate(696,960)" d="m0 0 3 1 1 4 2 2-3 3-6 2-1 2 1-7z" fill="#0D2E3D"/>
<path transform="translate(1720,1121)" d="m0 0 4 1-17 10-1-3 3-4 4-2z" fill="#94BAC8"/>
<path transform="translate(1283,973)" d="m0 0h1v19l-6 18h-1l1-8 3-13z" fill="#9AAAB1"/>
<path transform="translate(987,978)" d="m0 0h17l-3 10h-2v-6l-9-1z" fill="#0C2F40"/>
<path transform="translate(398,953)" d="m0 0 4 1 1 12-3 1-4-9z" fill="#0B3446"/>
<path transform="translate(618,987)" d="m0 0 2 2 2 6v6l-4 1-3-1z" fill="#0B3447"/>
<path transform="translate(525,897)" d="m0 0h2l1 2v12l-3 1-1-6h-2z" fill="#0B3345"/>
<path transform="translate(452,1043)" d="m0 0 3 4-5 10-4 1 1-5 3-9z" fill="#95DBF0"/>
<path transform="translate(419,1100)" d="m0 0 4 2 16 15 6 5h-3l-9-7-14-14z" fill="#89CBDF"/>
<path transform="translate(634,1050)" d="m0 0 1 2-4 24-1 3-3-1 1-1 2-17z" fill="#04455F"/>
<path transform="translate(598,958)" d="m0 0 2 2-8 13-4-1 2-8 5-1z" fill="#9BC0CD"/>
<path transform="translate(966,1033)" d="m0 0 1 3-2 11-5 9h-1l1-8 5-14z" fill="#0E2936"/>
<path transform="translate(804,1035)" d="m0 0 2 1-1 7-3 1-1-2h-4l-1-3 2-3h5z" fill="#1479A3"/>
<path transform="translate(904,1030)" d="m0 0 1 4-4 14-1 3h-3l4-16z" fill="#0D2C3A"/>
<path transform="translate(827,997)" d="m0 0 4 2-3 3-7 1-4 1-3-1v-3l11-2z" fill="#0C7BA8"/>
<path transform="translate(696 1e3)" d="m0 0 3 1-1 11-2 2h-3l1-8z" fill="#09374C"/>
<path transform="translate(1437,989)" d="m0 0 1 2 2 1h-2v7l-1 1h-5v-8h2v-2z" fill="#0F2835"/>
<path transform="translate(360,893)" d="m0 0 20 2v1l-8 1h-21v-1z" fill="#0B3548"/>
<path transform="translate(357,1039)" d="m0 0 5 2 5 11-6-2-4-8z" fill="#0A3649"/>
<path transform="translate(590,959)" d="m0 0 3 1v4h-3l-1 8v3l-2 5-3-1 1-5z" fill="#87DAF2"/>
<path transform="translate(463,961)" d="m0 0 4 1 1 1v7l-2 5-2-1-1-5z" fill="#EDE9E5"/>
<path transform="translate(553,939)" d="m0 0h1l-1 8-7 20-2 1 2-11z" fill="#98C7D7"/>
<path transform="translate(482,856)" d="m0 0m-9 1h9v2l-20 2-6 1-1-3z" fill="#0F2835"/>
<path transform="translate(1343,1138)" d="m0 0 7 1 2 4-5 1-7-1-1-4z" fill="#0B3346"/>
<path transform="translate(359,1117)" d="m0 0 14 8 14 7-1 2-16-8-5-2v-2l-5-1-2-2z" fill="#0F2835"/>
<path transform="translate(447,923)" d="m0 0 2 3 5 11-1 2-3-3h-5l1-7z" fill="#1080AD"/>
<path transform="translate(787,1128)" d="m0 0h6l-5 5-5 3-2 2v-3l-3-1z" fill="#074762"/>
<path transform="translate(1413,1078)" d="m0 0 4 2-10 7h-2v2l-3 1-2-2 10-8z" fill="#044661"/>
<path transform="translate(661,957)" d="m0 0h1l1 7-1 17-2 5h-1v-10z" fill="#8BDCF3"/>
<path transform="translate(597,871)" d="m0 0 2 3 1 3h-2l1 4 2 17-4-4z" fill="#044964"/>
<path transform="translate(428,1077)" d="m0 0 4 2 6 6-1 3-6-1-3-9z" fill="#7DD9F3"/>
<path transform="translate(1526,954)" d="m0 0h6l-1 7-5 15-2-1 2-9 4-9 1-2h-5z" fill="#9EB0B7"/>
<path transform="translate(1632,1081)" d="m0 0 4 1-5 5-8 1v2l-3-1 1-4 6-1z" fill="#044661"/>
<path transform="translate(699,1057)" d="m0 0h13v4l-7 1-7-3z" fill="#0F2835"/>
<path transform="translate(371,1049)" d="m0 0 5 4 7 8 5 6v2l-4-2-12-14z" fill="#88D0E5"/>
<path transform="translate(1480,1025)" d="m0 0 5 1-2 4-6 1-5-1 1-3z" fill="#083C53"/>
<path transform="translate(1687,1013)" d="m0 0h1v11l3 1 6 7-3 1-6-4-1-2z" fill="#0C3041"/>
<path transform="translate(1190,974)" d="m0 0 2 3-1 4-3 3-4 1v-3l4-7z" fill="#C5BFBC"/>
<path transform="translate(502,948)" d="m0 0h3l3 16 1 6-5-3v-10z" fill="#1EA7D3"/>
<path transform="translate(1055,1101)" d="m0 0h2v2l2 1-6 4-9 1 3-3z" fill="#0A384D"/>
<path transform="translate(293,1048)" d="m0 0h1l1 21 1 9h-2l-1-7v-8h-2l1-8z" fill="#075B7E"/>
<path transform="translate(1571,1037)" d="m0 0 2 1-3 11-3 9-2-2 1-5z" fill="#B3B8BB"/>
<path transform="translate(1304,1013)" d="m0 0h1l1 11 3 5 2 4-5-2-3-6v-10z" fill="#0C2E3E"/>
<path transform="translate(894,978)" d="m0 0 1 3-1 6v2l2 2-6 2-2 2 1-6 4-10z" fill="#BCBDBD"/>
<path transform="translate(801,980)" d="m0 0h9l3 1v2l-6 1-8 1z" fill="#0C2E3E"/>
<path transform="translate(915,988)" d="m0 0 2 2 1 9-6 5 1-8z" fill="#0A3548"/>
<path transform="translate(852,987)" d="m0 0 2 1v3l2 1-7 5-4 1 2-4z" fill="#BABDBD"/>
<path transform="translate(662,980)" d="m0 0h2l-1 6h-2l-2 10h-2v-8l1-5 2 1z" fill="#28AAD3"/>
<path transform="translate(1283,1050)" d="m0 0 5 1 14 4-2 3-9-2-8-5z" fill="#B5B9BA"/>
<path transform="translate(1344,1016)" d="m0 0h11l-1 5-9-2-6-1v-1z" fill="#0C3041"/>
<path transform="translate(1383,986)" d="m0 0 4 1 3 3v2l-8 1-1-5z" fill="#083C53"/>
<path transform="translate(572,887)" d="m0 0 5 2 1 3-4 1-1 4-2 7-1-4z" fill="#073C53"/>
<path transform="translate(1363,1083)" d="m0 0 2 1-2 3 1 4-5 2h-4l1-4z" fill="#083B51"/>
<path transform="translate(921,1016)" d="m0 0h2l4 15v5l-2-1-4-13z" fill="#0B3244"/>
<path transform="translate(1475,1016)" d="m0 0h10l5 3-1 6-2-1-2-4-10-3z" fill="#0D2B39"/>
<path transform="translate(1654,998)" d="m0 0h1l-1 9-4 13h-3z" fill="#A6B7BE"/>
<path transform="translate(1052,1099)" d="m0 0h5v2l-14 8v-3h2v-2l4-4z" fill="#82A3B4"/>
<path transform="translate(1682,1082)" d="m0 0 2 1-14 8-9 3 3-3 12-7z" fill="#073E55"/>
<path transform="translate(1749,1081)" d="m0 0h2v2l7 1 4 7v3l-13-11z" fill="#0B3548"/>
<path transform="translate(1652,1014)" d="m0 0 1 2v8l-1 2h-2v2h-2l-1 3-1-2 5-14z" fill="#0E2A37"/>
<path transform="translate(813,1013)" d="m0 0h3l1 4-6 7h-2l1-5z" fill="#1BA1CE"/>
<path transform="translate(674,960)" d="m0 0 2 1-1 6-3 4-3 3v-6z" fill="#9AB7C2"/>
<path transform="translate(1438,967)" d="m0 0 2 1-2 9-5 13-2-2z" fill="#A7B3B8"/>
<path transform="translate(769,961)" d="m0 0 3 1-1 8-4 4h-2l3-10z" fill="#0D2B39"/>
<path transform="translate(896,957)" d="m0 0 5 2v3l5-1-1 6-5-2-3-4v-2h-6v-1z" fill="#0B3548"/>
<path transform="translate(645,922)" d="m0 0 3 1v11l-1 5h-1l-2-11v-5z" fill="#77D5EF"/>
<path transform="translate(325,874)" d="m0 0 4 2-2 5-2 4-4-1v-5l4-2z" fill="#0A374B"/>
<path transform="translate(1019,1124)" d="m0 0 2 3-14 8-3-1z" fill="#075575"/>
<path transform="translate(1624,1114)" d="m0 0m-2 1 3 1-1 2-16 8-4 1 3-3z" fill="#7C96A3"/>
<path transform="translate(1109,1109)" d="m0 0 2 1-1 5-7 3-3-1 5-5z" fill="#083C53"/>
<path transform="translate(492,923)" d="m0 0h2l1 5-2 3-1 6-4-4 2-3-1-5z" fill="#4BBAD6"/>
<path transform="translate(463,1167)" d="m0 0 17 1v1l-7 1-1 1h-7z" fill="#0D7CAA"/>
<path transform="translate(630,1139)" d="m0 0h6l2 3-2 2h-7v-4z" fill="#0C3345"/>
<path transform="translate(358,1033)" d="m0 0 12 15-2 2-5-5-4-7z" fill="#177DA6"/>
<path transform="translate(757,1113)" d="m0 0m-2 1 2 1-5 5-6 4-3-1 7-6z" fill="#05516F"/>
<path transform="translate(428,1110)" d="m0 0 7 6 6 4-1 2-5-2v-2l-4-1v-2l-5-2z" fill="#064762"/>
<path transform="translate(1498,1095)" d="m0 0 5 1 1 3-2 2-9-1v-2z" fill="#073D55"/>
<path transform="translate(691,1065)" d="m0 0 9 6 5 6 2 2h-4v-2l-4 1-1-6-5-3z" fill="#083C53"/>
<path transform="translate(733,1032)" d="m0 0m-2 1 2 1-10 5h-11v-1h7l1-2z" fill="#C5BFBC"/>
<path transform="translate(900,983)" d="m0 0 1 4-5 7-4-1 3-2-2-4 2-2 3 2z" fill="#809AA7"/>
<path transform="translate(1475,947)" d="m0 0 5 2 4 5-9-1-3-4z" fill="#0B3547"/>
<path transform="translate(649,926)" d="m0 0h3l4 6v3l-3 1-2 3z" fill="#0F7FAD"/>
<path transform="translate(612,1064)" d="m0 0h1l-1 16-2-4v-3h-2l2-6z" fill="#064058"/>
<path transform="translate(561,1059)" d="m0 0h3v13l-3 1z" fill="#0D7CAA"/>
<path transform="translate(1086,956)" d="m0 0 1 2-5 16-2 1v-6l5-12z" fill="#0D2B39"/>
<path transform="translate(584,907)" d="m0 0 5 2 2 4-1 2-6-2-1-5z" fill="#0B3345"/>
<path transform="translate(480,1169)" d="m0 0h8l7 1-2 2-9 3 1-3-5-2z" fill="#0D7DAB"/>
<path transform="translate(1373,1037)" d="m0 0h2l-1 5-5 12-2-1 2-6z" fill="#A4B4BB"/>
<path transform="translate(293,1027)" d="m0 0h1l2 10 2 1h-2l-1 4-1-4-1 9h-1v-13z" fill="#0A4E6A"/>
<path transform="translate(1577,1019)" d="m0 0h2l-1 7-4 11-2-1 3-11z" fill="#AEB7BB"/>
<path transform="translate(457,1008)" d="m0 0 1 3h2l4 4-5 4-2 2z" fill="#43B1D2"/>
<path transform="translate(916,984)" d="m0 0h1v6l-2 1-2 9-2-1v-8z" fill="#99B3BD"/>
<path transform="translate(895,976)" d="m0 0 3 1 1 7-3 3-3-1z" fill="#1E3742"/>
<path transform="translate(593,859)" d="m0 0 11 2 3 2-2 1h-6l-3 1z" fill="#044863"/>
<path transform="translate(768,1103)" d="m0 0h3v2l-11 7-3-1 6-5z" fill="#72D1EC"/>
<path transform="translate(1305,1095)" d="m0 0 3 1-3 4-4 2v3h-2v-2l-2-1 5-5z" fill="#09384C"/>
<path transform="translate(1580,1079)" d="m0 0 6 1-3 3-6 3-3-1 5-5z" fill="#0B3447"/>
<path transform="translate(1631,982)" d="m0 0h1l-1 9-2 4h-2v-7l1-3z" fill="#0E2A38"/>
<path transform="translate(1265,978)" d="m0 0h7l2 4-3 1-7-2z" fill="#98BFCD"/>
<path transform="translate(773,964)" d="m0 0h5l1 4-2 2-1-2h-2l-3 6-1-4z" fill="#5C93AA"/>
<path transform="translate(508,947)" d="m0 0 6 2 1 4-4 2v-2h-3l-1-5z" fill="#0C3345"/>
<path transform="translate(900,1086)" d="m0 0m-1 1m-2 1 3 1-5 4-11 7-2-1z" fill="#086287"/>
<path transform="translate(1278,1082)" d="m0 0 2 1-13 10-4 3-2-1 8-7z" fill="#99BFCC"/>
<path transform="translate(1083,1083)" d="m0 0 2 1v3l-3 3-4 1-2-2 4-4z" fill="#083A50"/>
<path transform="translate(1745,1037)" d="m0 0 1 4-5 12-3 4-2-1 3-4 4-10z" fill="#809AA6"/>
<path transform="translate(1426,1035)" d="m0 0 3 4 1 4-4 2-1 2h-2z" fill="#AAB7BD"/>
<path transform="translate(458,910)" d="m0 0 4 1 2 2-6 3-4-1 2-4z" fill="#0B364A"/>
<path transform="translate(1211,1130)" d="m0 0m-2 1 5 1-1 2-6 2 1 2h-6l-2-2 7-3z" fill="#82A0AF"/>
<path transform="translate(958,1085)" d="m0 0 3 1v2l-10 5-2-1 4-4z" fill="#0A374B"/>
<path transform="translate(568,1057)" d="m0 0h11v2l-3 1h-9l-2-2z" fill="#0C3142"/>
<path transform="translate(808,1056)" d="m0 0h15l4 2-7 1-12-2z" fill="#0F2835"/>
<path transform="translate(592,951)" d="m0 0h6l-1 4-3 1-2 4-2-2 2-6z" fill="#4BBAD6"/>
<path transform="translate(1472,948)" d="m0 0m-1 1 4 3 4 2-9 2-1-5z" fill="#0B3244"/>
<path transform="translate(608,910)" d="m0 0 4 5 2 3-1 3-6-5v-5z" fill="#44B4D3"/>
<path transform="translate(1659,984)" d="m0 0h1l-1 8-3 10h-1v-7l3-10z" fill="#97B1BB"/>
<path transform="translate(987,959)" d="m0 0 1 3-5 12-2 1 3-12z" fill="#0C3143"/>
<path transform="translate(1558,1119)" d="m0 0 4 2-7 5-4-1 4-4z" fill="#437B93"/>
<path transform="translate(1226,1118)" d="m0 0 1 2-3 2h-3l-1 3-7 4v-3l11-7z" fill="#9FD7E7"/>
<path transform="translate(1560,1092)" d="m0 0 2 1-13 8-4 1 3-3 5-4z" fill="#AAD1DD"/>
<path transform="translate(293,1085)" d="m0 0 4 1 2 7h-3l-4-6z" fill="#0B3345"/>
<path transform="translate(1154,1041)" d="m0 0h4l-2 6-4 6-1-3z" fill="#0D2D3C"/>
<path transform="translate(1223,950)" d="m0 0h3v2l2 1-17 2v-2z" fill="#0A364A"/>
<path transform="translate(476,917)" d="m0 0 6 2 4 5-1 2-3-1-5-5z" fill="#0D7FAD"/>
<path transform="translate(348,1120)" d="m0 0h4v3h3v2l4 1 3 3v2l-4-2-10-8z" fill="#074E6B"/>
<path transform="translate(1136,1091)" d="m0 0h2l1 3-10 5 1-4z" fill="#073D55"/>
<path transform="translate(456,1068)" d="m0 0 4 4 2 5h2l1 3h-3l-5-6z" fill="#0D7CAA"/>
<path transform="translate(369,1049)" d="m0 0 5 5 4 5h-3l-4-2-2-4z" fill="#055270"/>
<path transform="translate(795,1044)" d="m0 0h1v7l1 3-2 3-3-1 2-9z" fill="#0B3547"/>
<path transform="translate(1509,1037)" d="m0 0h2l-2 4-6 7-3-1 5-5z" fill="#ABB3B6"/>
<path transform="translate(293,1036)" d="m0 0 2 2 2 10h-4z" fill="#6FCEE9"/>
<path transform="translate(582,939)" d="m0 0h2l-1 6-3 6-2 1 1-6z" fill="#829BA8"/>
<path transform="translate(489,920)" d="m0 0 5 1 2 1 3 7v5l-2-3-3-5v-3l-5-2z" fill="#044864"/>
<path transform="translate(770,1093)" d="m0 0 3 1-2 3-9 1 3-4z" fill="#86A9BA"/>
<path transform="translate(388,1074)" d="m0 0 6 2 2 2-1 4h-2l-5-7z" fill="#0D2D3D"/>
<path transform="translate(653,1067)" d="m0 0 3 1v4l3 1 2 5-4-1-3-5z" fill="#06425B"/>
<path transform="translate(754,1037)" d="m0 0 1 3-9 9-4 1 5-6 5-4z" fill="#09384D"/>
<path transform="translate(830,1100)" d="m0 0 4 2-5 4-3 1 1-5z" fill="#05506E"/>
<path transform="translate(1541,1099)" d="m0 0m-1 1 2 2-8 6-2-1-1-2h3v-2z" fill="#7398A9"/>
<path transform="translate(405,1099)" d="m0 0 4 2 7 5-1 2-5-2-2-2z" fill="#044863"/>
<path transform="translate(631,1073)" d="m0 0 2 4 4-1 1 2-11 3v-2h3z" fill="#0D7CAA"/>
<path transform="translate(289,1044)" d="m0 0 3 2-1 7-3-1v-7z" fill="#0C3345"/>
<path transform="translate(816,1037)" d="m0 0 10 2 4 1-7 2-8-2z" fill="#98BFCD"/>
<path transform="translate(583,976)" d="m0 0 3 1v8l-2 3-2-2z" fill="#80C3D7"/>
<path transform="translate(1626,973)" d="m0 0h1v5l-23-1v-1l21-1z" fill="#7C96A3"/>
<path transform="translate(379,941)" d="m0 0 3 1-14 9-2-1 11-8z" fill="#0F2835"/>
<path transform="translate(1028,1118)" d="m0 0 2 1-2 4-6 3h-2l2-4z" fill="#093C53"/>
<path transform="translate(970,1109)" d="m0 0 3 1-4 4-3 2-3-1h2l-1-3 6-2z" fill="#94B9C7"/>
<path transform="translate(824,1104)" d="m0 0h2l-1 5-5 2-2-3z" fill="#084B67"/>
<path transform="translate(680,1086)" d="m0 0 2 3-5 3-4 1-3 1v-2z" fill="#0A6B93"/>
<path transform="translate(812,1079)" d="m0 0h2l-1 3-8 5-3-1z" fill="#083B52"/>
<path transform="translate(623,1006)" d="m0 0h1l1 6v12h-1l-1-10h-2l1-6z" fill="#0F87B6"/>
<path transform="translate(910,993)" d="m0 0 2 1v7h-2l-2 6-1-4z" fill="#C3BFBC"/>
<path transform="translate(1562,983)" d="m0 0 1 4-4 9h-1v-6z" fill="#0D2B3A"/>
<path transform="translate(871,980)" d="m0 0h2l-1 4-3 6h-2l1-7z" fill="#1F2B31"/>
<path transform="translate(1335,978)" d="m0 0h11v1l-11 2-4 1-2-2z" fill="#0D2C3B"/>
<path transform="translate(771,959)" d="m0 0 6 1 2 2-1 3h-6l-2-5z" fill="#0A3649"/>
<path transform="translate(1344,950)" d="m0 0h2v2l4 1-14 1 1-3z" fill="#09394D"/>
<path transform="translate(546,1125)" d="m0 0 3 1v2l-5 2h-5v-2z" fill="#188CB8"/>
<path transform="translate(765,1108)" d="m0 0m-2 1 2 1-1 3-8 4 2-5z" fill="#065778"/>
<path transform="translate(1688,1107)" d="m0 0 3 1 1 3-6 2-1-4z" fill="#054C69"/>
<path transform="translate(1177,1055)" d="m0 0 15 1v1l-12 1-4-2z" fill="#B1BCBF"/>
<path transform="translate(1440,1021)" d="m0 0 5 2-3 4h-4l1-4z" fill="#044863"/>
<path transform="translate(609 1e3)" d="m0 0 2 2-1 7-2 1v-3l-2-1h2l-1-4z" fill="#7C96A3"/>
<path transform="translate(722,978)" d="m0 0h4v2l-5 1-1 4-3-1 1-4z" fill="#0A364A"/>
<path transform="translate(525,882)" d="m0 0h2l1 8v9h-1l-1-8-2-6z" fill="#054F6D"/>
<path transform="translate(608,865)" d="m0 0 6 4 3 4-8-2z" fill="#39B1D4"/>
<path transform="translate(1496,1133)" d="m0 0 2 1-2 3h6v1h-12l4-4z" fill="#71D2ED"/>
<path transform="translate(1186,1103)" d="m0 0 1 2-12 7-2-2z" fill="#054C69"/>
<path transform="translate(556,1057)" d="m0 0h5l-1 5-4 2-1-3z" fill="#0B3548"/>
<path transform="translate(875,1034)" d="m0 0 1 3-2 2-10 1-3-2 11-1 3-1z" fill="#93B8C7"/>
<path transform="translate(786,1020)" d="m0 0h1v8l-2 7h-1v-9z" fill="#0B3447"/>
<path transform="translate(1446,1009)" d="m0 0 5 1 6 3-2 2-7-3z" fill="#0C2E3D"/>
<path transform="translate(1431,993)" d="m0 0 2 1-1 8-1 2h-2l1-8z" fill="#0C2F40"/>
<path transform="translate(650,955)" d="m0 0h2l-1 6-2 5h-1v-8z" fill="#0D2D3D"/>
<path transform="translate(671,955)" d="m0 0h3l1 5-4 5z" fill="#0C7AA7"/>
<path transform="translate(645,953)" d="m0 0v3l-2 2h-6l1-3 5-1z" fill="#88A9BA"/>
</svg>
